<?xml version="1.0" encoding="UTF-8"?>
<svg version="1.1" xmlns="http://www.w3.org/2000/svg" width="4475" height="1023">
<path d="M0 0 C25.08 0 50.16 0 76 0 C76 218.46 76 436.92 76 662 C50.92 662 25.84 662 0 662 C-0.495 634.28 -0.495 634.28 -1 606 C-3.97 609.96 -6.94 613.92 -10 618 C-31.40228498 644.13174096 -62.15441109 658.22215594 -94.625 665.25 C-95.31505127 665.40106201 -96.00510254 665.55212402 -96.71606445 665.70776367 C-111.48052069 668.70049042 -126.18533648 669.34831922 -141.20947266 669.31567383 C-144.23246544 669.3125183 -147.25447119 669.33605983 -150.27734375 669.36132812 C-195.28452827 669.50844258 -237.35916848 655.1680742 -269.9375 623.5 C-294.66381808 598.79055074 -307.62032142 565.11375001 -314.25 531.375 C-314.40114258 530.61388916 -314.55228516 529.85277832 -314.70800781 529.06860352 C-318.28973208 509.54901476 -318.314542 490.0013871 -318.30158257 470.23651385 C-318.30049785 466.94991436 -318.30543424 463.66333354 -318.310188 460.37673813 C-318.32121286 452.60229957 -318.32176148 444.82790935 -318.31567383 437.0534668 C-318.3096494 429.11178976 -318.32192239 421.17029057 -318.3432439 413.22864383 C-318.36103481 406.3412759 -318.36683386 399.45396366 -318.36360615 392.56657368 C-318.36181962 388.48367368 -318.36415786 384.40090033 -318.37832069 380.31802177 C-318.54338922 328.22910944 -311.04810698 273.93456511 -276 233 C-274.93652344 231.75283203 -274.93652344 231.75283203 -273.8515625 230.48046875 C-248.14710064 201.12326757 -211.42911821 185.60651386 -173 182 C-169.63135762 181.84564794 -166.26639736 181.8128145 -162.89453125 181.796875 C-161.93463791 181.79117493 -160.97474457 181.78547485 -159.98576355 181.77960205 C-157.95609624 181.77019303 -155.92641394 181.76363446 -153.89672852 181.75976562 C-150.86640787 181.75017069 -147.83679934 181.71915431 -144.80664062 181.6875 C-128.00966167 181.59587575 -111.57573008 183.21981433 -95.25 187.3125 C-94.38842285 187.52487305 -93.5268457 187.73724609 -92.63916016 187.95605469 C-57.10209383 196.98945764 -21.72025367 216.9196195 -1 248 C-0.67 166.16 -0.34 84.32 0 0 Z M-156 251 C-156.98540771 251.24943359 -156.98540771 251.24943359 -157.99072266 251.50390625 C-185.38379526 258.62412729 -209.45500521 274.34677655 -224 299 C-237.03507348 321.87041426 -242.13626548 346.87911928 -242.16113281 373.01098633 C-242.16609772 374.27593933 -242.17106262 375.54089233 -242.17617798 376.84417725 C-242.18918837 380.28909966 -242.1957254 383.73400269 -242.20018864 387.17894578 C-242.20314004 389.34305652 -242.20724866 391.50716221 -242.21169281 393.67127037 C-242.22534266 400.47629321 -242.23501953 407.28130421 -242.2388947 414.08633977 C-242.24335859 421.87746596 -242.26083907 429.66841524 -242.2898953 437.45948774 C-242.3117033 443.52281591 -242.32160916 449.58609505 -242.32293582 455.64946193 C-242.32397103 459.25113215 -242.32959696 462.85263562 -242.34775543 466.45426369 C-242.53072321 504.95408894 -237.2587826 542.46884544 -209.62548828 571.38623047 C-188.8020552 592.05953967 -159.08230577 603.02437376 -129.94140625 603.203125 C-129.19398666 603.20882507 -128.44656708 603.21452515 -127.67649841 603.22039795 C-126.10083399 603.2297838 -124.5251505 603.23635616 -122.94946289 603.24023438 C-120.59939918 603.24984904 -118.25024659 603.28089534 -115.90039062 603.3125 C-102.23631281 603.40891918 -88.84421665 601.85538047 -75.875 597.3125 C-75.13620605 597.05831299 -74.39741211 596.80412598 -73.63623047 596.54223633 C-45.34341596 586.40645536 -23.00990514 565.14679968 -10.13623047 538.19140625 C-3.96066032 524.63794257 0.10006638 509.39109417 0.14044189 494.46414185 C0.14615204 493.19172134 0.15186218 491.91930084 0.15774536 490.60832214 C0.15899046 489.21560679 0.16011561 487.82289132 0.16113281 486.43017578 C0.16576722 484.94935484 0.17079271 483.46853508 0.17617798 481.98771667 C0.18924995 477.97678751 0.19573754 473.96587504 0.20018864 469.95492792 C0.20312973 467.44127209 0.20723659 464.92762071 0.21169281 462.41396713 C0.22535833 454.52718794 0.2350278 446.64041906 0.2388947 438.75362885 C0.24336362 429.69180201 0.26086106 420.6301269 0.2898953 411.56834614 C0.31162783 404.53784579 0.32160522 397.50738774 0.32293582 390.47685421 C0.32397625 386.29065339 0.32971849 382.10459535 0.34775543 377.91843033 C0.36443604 373.97027815 0.36629665 370.02237298 0.35761642 366.07419777 C0.35685641 364.63969948 0.36104848 363.20518679 0.37107468 361.77072334 C0.54889941 334.70072212 -7.5638341 308.9059046 -25 288 C-25.77085937 287.06542969 -26.54171875 286.13085938 -27.3359375 285.16796875 C-46.1064377 263.45128972 -73.64187071 250.8327237 -102 248 C-104.6829847 247.88991857 -107.34077241 247.81398888 -110.0234375 247.796875 C-111.13258011 247.78635353 -111.13258011 247.78635353 -112.26412964 247.77561951 C-114.63448247 247.7582245 -117.00458571 247.75176843 -119.375 247.75 C-120.1836853 247.74932526 -120.99237061 247.74865051 -121.82556152 247.74795532 C-133.47753192 247.76343073 -144.66272482 248.06202273 -156 251 Z " fill="#075CE6" transform="translate(3233,136)"/>
<path d="M0 0 C25.08 0 50.16 0 76 0 C76 218.46 76 436.92 76 662 C50.92 662 25.84 662 0 662 C-0.495 634.28 -0.495 634.28 -1 606 C-3.97 609.96 -6.94 613.92 -10 618 C-31.40228498 644.13174096 -62.15441109 658.22215594 -94.625 665.25 C-95.31505127 665.40106201 -96.00510254 665.55212402 -96.71606445 665.70776367 C-111.48052069 668.70049042 -126.18533648 669.34831922 -141.20947266 669.31567383 C-144.23246544 669.3125183 -147.25447119 669.33605983 -150.27734375 669.36132812 C-195.28452827 669.50844258 -237.35916848 655.1680742 -269.9375 623.5 C-294.66381808 598.79055074 -307.62032142 565.11375001 -314.25 531.375 C-314.40114258 530.61388916 -314.55228516 529.85277832 -314.70800781 529.06860352 C-318.28973208 509.54901476 -318.314542 490.0013871 -318.30158257 470.23651385 C-318.30049785 466.94991436 -318.30543424 463.66333354 -318.310188 460.37673813 C-318.32121286 452.60229957 -318.32176148 444.82790935 -318.31567383 437.0534668 C-318.3096494 429.11178976 -318.32192239 421.17029057 -318.3432439 413.22864383 C-318.36103481 406.3412759 -318.36683386 399.45396366 -318.36360615 392.56657368 C-318.36181962 388.48367368 -318.36415786 384.40090033 -318.37832069 380.31802177 C-318.54338922 328.22910944 -311.04810698 273.93456511 -276 233 C-274.93652344 231.75283203 -274.93652344 231.75283203 -273.8515625 230.48046875 C-248.14710064 201.12326757 -211.42911821 185.60651386 -173 182 C-169.63135762 181.84564794 -166.26639736 181.8128145 -162.89453125 181.796875 C-161.93463791 181.79117493 -160.97474457 181.78547485 -159.98576355 181.77960205 C-157.95609624 181.77019303 -155.92641394 181.76363446 -153.89672852 181.75976562 C-150.86640787 181.75017069 -147.83679934 181.71915431 -144.80664062 181.6875 C-128.00966167 181.59587575 -111.57573008 183.21981433 -95.25 187.3125 C-94.38842285 187.52487305 -93.5268457 187.73724609 -92.63916016 187.95605469 C-57.10209383 196.98945764 -21.72025367 216.9196195 -1 248 C-0.67 166.16 -0.34 84.32 0 0 Z M-156 251 C-156.98540771 251.24943359 -156.98540771 251.24943359 -157.99072266 251.50390625 C-185.38379526 258.62412729 -209.45500521 274.34677655 -224 299 C-237.03507348 321.87041426 -242.13626548 346.87911928 -242.16113281 373.01098633 C-242.16609772 374.27593933 -242.17106262 375.54089233 -242.17617798 376.84417725 C-242.18918837 380.28909966 -242.1957254 383.73400269 -242.20018864 387.17894578 C-242.20314004 389.34305652 -242.20724866 391.50716221 -242.21169281 393.67127037 C-242.22534266 400.47629321 -242.23501953 407.28130421 -242.2388947 414.08633977 C-242.24335859 421.87746596 -242.26083907 429.66841524 -242.2898953 437.45948774 C-242.3117033 443.52281591 -242.32160916 449.58609505 -242.32293582 455.64946193 C-242.32397103 459.25113215 -242.32959696 462.85263562 -242.34775543 466.45426369 C-242.53072321 504.95408894 -237.2587826 542.46884544 -209.62548828 571.38623047 C-188.8020552 592.05953967 -159.08230577 603.02437376 -129.94140625 603.203125 C-129.19398666 603.20882507 -128.44656708 603.21452515 -127.67649841 603.22039795 C-126.10083399 603.2297838 -124.5251505 603.23635616 -122.94946289 603.24023438 C-120.59939918 603.24984904 -118.25024659 603.28089534 -115.90039062 603.3125 C-102.23631281 603.40891918 -88.84421665 601.85538047 -75.875 597.3125 C-75.13620605 597.05831299 -74.39741211 596.80412598 -73.63623047 596.54223633 C-45.34341596 586.40645536 -23.00990514 565.14679968 -10.13623047 538.19140625 C-3.96066032 524.63794257 0.10006638 509.39109417 0.14044189 494.46414185 C0.14615204 493.19172134 0.15186218 491.91930084 0.15774536 490.60832214 C0.15899046 489.21560679 0.16011561 487.82289132 0.16113281 486.43017578 C0.16576722 484.94935484 0.17079271 483.46853508 0.17617798 481.98771667 C0.18924995 477.97678751 0.19573754 473.96587504 0.20018864 469.95492792 C0.20312973 467.44127209 0.20723659 464.92762071 0.21169281 462.41396713 C0.22535833 454.52718794 0.2350278 446.64041906 0.2388947 438.75362885 C0.24336362 429.69180201 0.26086106 420.6301269 0.2898953 411.56834614 C0.31162783 404.53784579 0.32160522 397.50738774 0.32293582 390.47685421 C0.32397625 386.29065339 0.32971849 382.10459535 0.34775543 377.91843033 C0.36443604 373.97027815 0.36629665 370.02237298 0.35761642 366.07419777 C0.35685641 364.63969948 0.36104848 363.20518679 0.37107468 361.77072334 C0.54889941 334.70072212 -7.5638341 308.9059046 -25 288 C-25.77085937 287.06542969 -26.54171875 286.13085938 -27.3359375 285.16796875 C-46.1064377 263.45128972 -73.64187071 250.8327237 -102 248 C-104.6829847 247.88991857 -107.34077241 247.81398888 -110.0234375 247.796875 C-111.13258011 247.78635353 -111.13258011 247.78635353 -112.26412964 247.77561951 C-114.63448247 247.7582245 -117.00458571 247.75176843 -119.375 247.75 C-120.1836853 247.74932526 -120.99237061 247.74865051 -121.82556152 247.74795532 C-133.47753192 247.76343073 -144.66272482 248.06202273 -156 251 Z " fill="#075CE6" transform="translate(2193,136)"/>
<path d="M0 0 C0.89041992 0.00215515 1.78083984 0.0043103 2.69824219 0.00653076 C16.89135493 0.06139777 30.77815342 0.61470913 44.75 3.3125 C45.74241699 3.50054199 46.73483398 3.68858398 47.75732422 3.88232422 C83.02930787 10.83494825 112.93102532 26.51921061 138.75 51.3125 C139.3054248 51.84311035 139.86084961 52.3737207 140.43310547 52.92041016 C181.18963942 92.62008502 193.22741521 152.04148253 197.75 206.3125 C197.75 229.4125 197.75 252.5125 197.75 276.3125 C87.2 276.3125 -23.35 276.3125 -137.25 276.3125 C-133.7811845 313.31319865 -129.70072236 344.26357888 -106.25 373.3125 C-105.74984375 373.96605469 -105.2496875 374.61960937 -104.734375 375.29296875 C-100.34156729 380.80922441 -94.80747036 385.025746 -89.25 389.3125 C-88.47914062 389.910625 -87.70828125 390.50875 -86.9140625 391.125 C-62.68194754 408.98894823 -31.69268169 417.33240805 -1.796875 417.515625 C-1.02285339 417.52268463 -0.24883179 417.52974426 0.54864502 417.53701782 C24.80419068 417.76999952 24.80419068 417.76999952 48.75 414.3125 C49.62398437 414.11914062 50.49796875 413.92578125 51.3984375 413.7265625 C79.96054088 407.17265209 107.77612345 394.05620682 128.48852539 372.98339844 C130.0078125 371.48828125 130.0078125 371.48828125 132.75 369.3125 C136.76864505 369.69111777 138.42196227 371.86344008 140.96166992 374.86987305 C141.46931885 375.49031494 141.97696777 376.11075684 142.5 376.75 C143.29724487 377.70289917 143.29724487 377.70289917 144.1105957 378.67504883 C147.74733541 383.03880602 151.31989955 387.45479615 154.84375 391.91015625 C156.85094075 394.43971017 158.88965331 396.94075938 160.9375 399.4375 C166.90062045 406.7083223 172.82367701 414.01167774 178.75 421.3125 C176.45450559 426.04844809 173.31461019 429.462721 169.75 433.3125 C168.99976562 434.14007812 168.24953125 434.96765625 167.4765625 435.8203125 C135.07454271 470.0169057 86.35934521 484.29775723 40.75 488.3125 C39.58339844 488.42335938 38.41679687 488.53421875 37.21484375 488.6484375 C-23.92024816 493.48693675 -92.25980096 484.24919632 -140.92236328 443.92675781 C-143.98284273 441.30186992 -146.90882965 438.55984043 -149.78759766 435.73535156 C-151.30938274 434.25472327 -152.86122041 432.81094986 -154.41796875 431.3671875 C-194.23160326 393.82179603 -207.71014421 337.02269098 -209.31464005 284.1837883 C-209.55089563 274.201581 -209.53944188 264.21628656 -209.51074219 254.23193359 C-209.49936819 250.24372254 -209.50612927 246.25577907 -209.51761341 242.26757717 C-209.57896463 217.18750559 -209.52162134 191.7565108 -205.0625 167 C-204.84891846 165.77619629 -204.63533691 164.55239258 -204.4152832 163.29150391 C-196.93985763 122.35023303 -180.3031398 84.32508037 -150.64453125 54.7109375 C-149.25288038 53.3170164 -147.87582949 51.90757574 -146.5390625 50.4609375 C-110.22199795 11.75683584 -50.75838612 -0.22361049 0 0 Z M-99.25 106.3125 C-100.05050781 107.11300781 -100.85101563 107.91351563 -101.67578125 108.73828125 C-127.07885151 135.54532085 -137.25 175.21139477 -137.25 211.3125 C-50.79 211.3125 35.67 211.3125 124.75 211.3125 C124.75 169.13934321 117.22926107 131.39884912 87.1875 100.3125 C71.49366447 84.64864792 51.19386212 75.81609638 29.75 71.3125 C28.58984375 71.06628906 27.4296875 70.82007813 26.234375 70.56640625 C-18.47797632 63.02769585 -66.83748538 73.89998538 -99.25 106.3125 Z " fill="#075CE6" transform="translate(4277.25,307.6875)"/>
<path d="M0 0 C3.24025302 0.00315578 6.47958577 -0.02037904 9.71972656 -0.0456543 C23.2306215 -0.08681923 36.21222146 0.90796082 49.50878906 3.31567383 C51.11681396 3.60583374 51.11681396 3.60583374 52.75732422 3.90185547 C55.17195244 4.37997074 57.55676347 4.91333447 59.94628906 5.50317383 C60.79352539 5.71039063 61.64076172 5.91760742 62.51367188 6.13110352 C107.08958989 17.52436162 144.60811807 45.30821785 168.1496582 84.89526367 C174.20450273 95.34954771 179.27381439 106.00537079 183.50878906 117.31567383 C183.77884766 118.03223145 184.04890625 118.74878906 184.32714844 119.48706055 C203.01003137 169.96544241 200.50878906 221.80936748 200.50878906 275.31567383 C90.28878906 275.31567383 -19.93121094 275.31567383 -133.49121094 275.31567383 C-130.03665812 312.16423723 -126.05719541 343.39188116 -102.49121094 372.31567383 C-101.87890625 373.09297852 -101.26660156 373.8702832 -100.63574219 374.67114258 C-82.96339642 395.9608555 -55.8997232 407.5957093 -29.49121094 413.31567383 C-28.39752197 413.56341553 -28.39752197 413.56341553 -27.28173828 413.81616211 C-0.81119 419.53616662 31.32691217 418.91133837 57.50878906 412.31567383 C58.37503906 412.10136719 59.24128906 411.88706055 60.13378906 411.66625977 C89.59048613 404.13770661 114.50399173 389.04163525 136.50878906 368.31567383 C140.89079096 369.90154118 143.37779954 373.34211766 146.25878906 376.81567383 C146.79028564 377.44642822 147.32178223 378.07718262 147.86938477 378.72705078 C151.50846876 383.06275785 155.07563721 387.45391984 158.58691406 391.89379883 C162.9767964 397.42576437 167.49052356 402.85921121 171.97363281 408.31567383 C173.16666016 409.76973633 173.16666016 409.76973633 174.38378906 411.25317383 C175.10308594 412.12844727 175.82238281 413.0037207 176.56347656 413.90551758 C177.52640625 415.09854492 177.52640625 415.09854492 178.50878906 416.31567383 C179.13011719 416.97696289 179.75144531 417.63825195 180.39160156 418.31958008 C181.50878906 420.31567383 181.50878906 420.31567383 180.98535156 422.72973633 C176.39613634 430.76693335 168.65936672 437.55270827 161.50878906 443.31567383 C160.56519531 444.08524414 159.62160156 444.85481445 158.64941406 445.64770508 C117.4947526 478.61758182 64.82103772 488.03325465 13.32128906 487.75317383 C12.12566345 487.75013245 10.93003784 487.74709106 9.69818115 487.74395752 C-8.98999183 487.67388505 -27.11878729 486.94977961 -45.49121094 483.31567383 C-47.13742432 482.99421387 -47.13742432 482.99421387 -48.81689453 482.66625977 C-87.19851379 474.88918487 -121.0902919 458.33514616 -149.49121094 431.31567383 C-150.17570312 430.69563477 -150.86019531 430.0755957 -151.56542969 429.43676758 C-163.57503178 418.18248637 -172.79918486 403.75379192 -180.49121094 389.31567383 C-180.84521973 388.65164551 -181.19922852 387.98761719 -181.56396484 387.3034668 C-203.20854208 345.87304421 -205.02147423 300.39111745 -204.88232422 254.74047852 C-204.8652541 249.08407085 -204.8753723 243.42808726 -204.89264584 237.77169418 C-205.068653 169.91711192 -195.14297806 102.24003377 -145.22167969 51.97973633 C-116.40003487 23.81974925 -77.92662671 8.22087789 -38.49121094 2.31567383 C-37.31703613 2.13689697 -36.14286133 1.95812012 -34.93310547 1.77392578 C-23.30498839 0.13838462 -11.72833284 -0.02379508 0 0 Z M-34.49121094 72.31567383 C-35.19858398 72.48728027 -35.90595703 72.65888672 -36.63476562 72.83569336 C-58.08523859 78.18159074 -76.5895713 87.85421799 -92.49121094 103.31567383 C-93.60882812 104.34047852 -93.60882812 104.34047852 -94.74902344 105.38598633 C-123.50185461 132.53587221 -131.39681554 173.61655666 -133.49121094 211.31567383 C-47.03121094 211.31567383 39.42878906 211.31567383 128.50878906 211.31567383 C128.50878906 169.34758684 119.73686761 130.52616748 90.13378906 99.50317383 C77.4340037 87.2524615 62.10184704 79.0543088 45.32128906 73.94067383 C44.53874756 73.70195557 43.75620605 73.4632373 42.94995117 73.21728516 C30.0081012 69.51406512 17.24164541 68.94338478 3.88378906 69.00317383 C3.04151764 69.00499664 2.19924622 69.00681946 1.33145142 69.00869751 C-10.81756948 69.0530291 -22.65071467 69.33373067 -34.49121094 72.31567383 Z " fill="#075CE6" transform="translate(2600.4912109375,317.684326171875)"/>
<path d="M0 0 C3.29013484 0.01610897 6.57904197 0.00001732 9.86914062 -0.01904297 C57.88137921 -0.06726843 108.55566312 11.88195178 145.29101562 44.39111328 C145.78053711 44.82037109 146.27005859 45.24962891 146.77441406 45.69189453 C186.56599355 80.71454027 204.49861698 130.98878001 208.08364868 182.97024536 C208.61251361 192.78068354 208.45590946 202.62861187 208.45898438 212.44970703 C208.46220599 214.88566608 208.46557071 217.32162495 208.46907043 219.75758362 C208.47503335 224.85019376 208.47691336 229.94278701 208.47631836 235.03540039 C208.47621712 241.49647987 208.48984257 247.95744852 208.50709057 254.41850185 C208.51832268 259.44890317 208.52023413 264.47927868 208.51970863 269.50969124 C208.52087298 271.88822879 208.52520547 274.26676736 208.533041 276.64529228 C208.70886182 335.5454622 195.97738209 392.51339472 153.54101562 435.57861328 C127.44577869 461.42820353 93.47185573 476.66271289 57.66601562 483.64111328 C56.89265869 483.79225586 56.11930176 483.94339844 55.32250977 484.09912109 C39.22715831 487.02105151 23.30962799 487.73874848 6.97973633 487.70678711 C3.6254805 487.70363393 0.27211603 487.72715951 -3.08203125 487.75244141 C-21.40040234 487.8063664 -39.43856471 486.20060881 -57.33398438 482.14111328 C-58.74043213 481.82533325 -58.74043213 481.82533325 -60.17529297 481.50317383 C-89.16878765 474.7402964 -116.28185495 462.16195602 -138.70898438 442.39111328 C-140.16884766 441.13041016 -140.16884766 441.13041016 -141.65820312 439.84423828 C-180.16325364 406.04336877 -197.44415966 354.35079476 -200.70898438 304.39111328 C-200.84398679 300.31028721 -200.86583632 296.2332422 -200.87011719 292.15039062 C-200.87508209 290.99071274 -200.880047 289.83103485 -200.88516235 288.63621521 C-200.89965787 284.83315413 -200.90656733 281.03013485 -200.91210938 277.22705078 C-200.91641333 275.22750933 -200.92071787 273.22796789 -200.92508388 271.22842658 C-200.93685176 265.65408833 -200.94441589 260.07975994 -200.94787908 254.50541055 C-200.95233463 247.379383 -200.96977966 240.25354965 -200.99887967 233.127581 C-201.02077708 227.56519155 -201.0305982 222.00285553 -201.03192019 216.44042361 C-201.03294962 213.14433324 -201.03998668 209.84846318 -201.05673981 206.55241013 C-201.31305532 152.21555488 -189.56149215 98.3420528 -151.70898438 57.39111328 C-151.21849609 56.85679687 -150.72800781 56.32248047 -150.22265625 55.77197266 C-137.6283547 42.21259053 -123.14327551 31.81428178 -106.70898438 23.39111328 C-106.04318359 23.0459668 -105.37738281 22.70082031 -104.69140625 22.34521484 C-72.26014406 5.7238028 -36.15162915 -0.20943457 0 0 Z M-34.70898438 73.39111328 C-35.39460449 73.56803711 -36.08022461 73.74496094 -36.78662109 73.92724609 C-41.51133955 75.19578863 -46.11725894 76.70715941 -50.70898438 78.39111328 C-51.88976562 78.82166016 -53.07054687 79.25220703 -54.28710938 79.69580078 C-68.78490355 85.44940968 -80.75306712 94.43519603 -91.70898438 105.39111328 C-92.44761719 106.12974609 -93.18625 106.86837891 -93.94726562 107.62939453 C-99.55326393 113.58372671 -103.69210566 120.29489696 -107.70898438 127.39111328 C-108.31871094 128.46103516 -108.9284375 129.53095703 -109.55664062 130.63330078 C-120.73043156 151.50741571 -124.84298858 175.88908742 -124.87011719 199.36669922 C-124.87508209 200.41546738 -124.880047 201.46423553 -124.88516235 202.54478455 C-124.89967288 205.98835936 -124.90656974 209.43188801 -124.91210938 212.87548828 C-124.91493675 214.06347267 -124.91776413 215.25145706 -124.92067719 216.47544098 C-124.93562983 222.77073892 -124.94488228 229.0660142 -124.94921875 235.36132812 C-124.95467693 241.80249105 -124.9786602 248.24343978 -125.0071907 254.68453598 C-125.02599787 259.69002853 -125.03103234 264.69547153 -125.03255463 269.7009964 C-125.03554447 272.07199516 -125.04344548 274.44299384 -125.05673981 276.81395721 C-125.24480816 312.95349774 -119.71024027 348.89277997 -95.70898438 377.39111328 C-95.06574219 378.18001953 -94.4225 378.96892578 -93.75976562 379.78173828 C-74.17957458 402.80022535 -45.30153378 414.46107168 -15.70898438 417.39111328 C-12.89992449 417.53902359 -10.09582449 417.57729326 -7.28320312 417.59423828 C-6.50202621 417.60125259 -5.7208493 417.60826691 -4.91600037 417.61549377 C-2.4094358 417.63290231 0.09689283 417.63934548 2.60351562 417.64111328 C3.4579425 417.64178802 4.31236938 417.64246277 5.19268799 417.64315796 C17.4256564 417.62777582 29.37653621 417.46494701 41.29101562 414.39111328 C41.96600098 414.21950684 42.64098633 414.04790039 43.33642578 413.87109375 C63.25935317 408.60692474 80.33322666 399.70608817 95.29101562 385.39111328 C96.03996094 384.71693359 96.78890625 384.04275391 97.56054688 383.34814453 C121.9805398 360.5533 130.81513445 324.61568138 132.29101562 292.39111328 C132.48367214 285.07028 132.45635557 277.74518257 132.45898438 270.42236328 C132.46220669 268.29406717 132.46557146 266.16577126 132.46907043 264.03747559 C132.47503073 259.5895944 132.47691363 255.14173255 132.47631836 250.69384766 C132.47621713 245.05423082 132.48984277 239.41474099 132.50709057 233.77515411 C132.51832944 229.38048762 132.52023393 224.98585064 132.51970863 220.59117126 C132.52087196 218.51520858 132.52519843 216.4392447 132.533041 214.36329651 C132.59285388 196.89092289 132.22289371 179.13484701 128.04101562 162.07861328 C127.71568848 160.71518799 127.71568848 160.71518799 127.38378906 159.32421875 C122.78657966 140.75554719 114.98217131 123.85548433 102.29101562 109.39111328 C101.65550781 108.62412109 101.02 107.85712891 100.36523438 107.06689453 C86.33433893 90.50537666 66.39395414 80.13021613 45.66601562 74.57861328 C44.93946777 74.38372314 44.21291992 74.18883301 43.46435547 73.98803711 C30.24564122 70.67825311 17.15098271 70.01765185 3.60351562 70.07861328 C2.7640741 70.0804361 1.92463257 70.08225891 1.05975342 70.08413696 C-11.0475863 70.12844232 -22.92141685 70.33715567 -34.70898438 73.39111328 Z " fill="#075CE6" transform="translate(1022.708984375,317.60888671875)"/>
<path d="M0 0 C25.41 0 50.82 0 77 0 C77.01458252 9.20567871 77.02916504 18.41135742 77.04418945 27.89599609 C77.09301871 57.40095659 77.15644764 86.9058697 77.22898628 116.41078105 C77.24025351 120.99911418 77.25139211 125.58744761 77.26245117 130.17578125 C77.26465486 131.0891784 77.26685854 132.00257554 77.269129 132.94365139 C77.30443456 147.70426209 77.32933667 162.46487275 77.35034702 177.22550993 C77.37216291 192.38813685 77.40526793 207.55070931 77.44870156 222.71328986 C77.47511888 232.05813866 77.49288715 241.40291969 77.49934604 250.74780394 C77.50463044 257.16894657 77.5209488 263.59000417 77.54566566 270.01110111 C77.55957695 273.70745876 77.56889085 277.40366456 77.56500816 281.10004997 C77.53869098 312.76731035 81.0646375 344.66140638 102 370 C102.66386719 370.82628906 103.32773438 371.65257812 104.01171875 372.50390625 C122.98230792 394.91094225 151.24701657 406.18619245 180 409 C182.95478357 409.14999688 185.90501052 409.18688292 188.86328125 409.203125 C189.69474167 409.20882507 190.52620209 409.21452515 191.38285828 409.22039795 C193.13844556 409.22979484 194.89405005 409.23636064 196.6496582 409.24023438 C199.26742647 409.2498347 201.88437198 409.28086461 204.50195312 409.3125 C219.66745022 409.40862848 234.65863495 407.88314537 249.1875 403.3125 C250.00863281 403.05831299 250.82976562 402.80412598 251.67578125 402.54223633 C264.97852162 398.24226965 276.18848417 391.82912695 287 383 C287.64066406 382.52304687 288.28132813 382.04609375 288.94140625 381.5546875 C307.42455995 367.23131549 316.68764028 341.78498293 319.72022343 319.4598856 C321.41008058 304.60211814 321.17220865 289.65785018 321.20060861 274.72703278 C321.20870002 271.03195392 321.22236689 267.33689487 321.23532104 263.64183044 C321.25696136 257.25618685 321.27515055 250.87054113 321.29092598 244.48488045 C321.31373906 235.25254164 321.3418653 226.02022488 321.37124526 216.78790491 C321.41878192 201.80530902 321.46208334 186.82270406 321.50268555 171.84008789 C321.54211167 157.29483333 321.58355468 142.74958679 321.62768555 128.2043457 C321.63177196 126.85714798 321.63177196 126.85714798 321.63594092 125.48273415 C321.64962157 120.97660405 321.66334161 116.47047407 321.67708123 111.96434414 C321.79082696 74.64291192 321.89689746 37.32146344 322 0 C346.75 0 371.5 0 397 0 C397 156.09 397 312.18 397 473 C372.25 473 347.5 473 322 473 C321.67 453.2 321.34 433.4 321 413 C317.37 417.62 313.74 422.24 310 427 C280.35857674 459.17178866 236.98791388 478.15644682 193.40948486 480.11651611 C186.48203621 480.35367916 179.55604475 480.41642302 172.625 480.4375 C171.66038849 480.44376404 170.69577698 480.45002808 169.70193481 480.45648193 C126.08772393 480.63551573 83.03448368 468.04653121 51.15625 437.1796875 C10.86082047 397.05794516 0.02776068 339.35691382 -0.12025452 284.52218628 C-0.12594694 279.92043804 -0.12301409 275.31874884 -0.11606562 270.71700788 C-0.11169104 267.07311853 -0.11321244 263.4292306 -0.1139679 259.78533936 C-0.11448875 253.49304652 -0.11138817 247.20076417 -0.10573006 240.90847397 C-0.09755507 231.81121257 -0.09499373 222.71395616 -0.09374207 213.61669149 C-0.09156091 198.85204276 -0.08492636 184.08739961 -0.07543945 169.32275391 C-0.06624101 154.99202502 -0.05917211 140.66129765 -0.05493164 126.33056641 C-0.05466892 125.44517075 -0.05440619 124.55977509 -0.05413551 123.64754926 C-0.05283034 119.20516745 -0.05156666 114.76278564 -0.05032361 110.32040381 C-0.03998018 73.54693093 -0.02155771 36.77346836 0 0 Z " fill="#075CE6" transform="translate(1350,325)"/>
<path d="M0 0 C3.54221877 0.01614324 7.08330255 -0.00000683 10.62548828 -0.01904297 C70.86032896 -0.07472009 128.56330061 17.79654728 171.91064453 60.64111328 C172.5817627 61.30272461 173.25288086 61.96433594 173.94433594 62.64599609 C177.91575971 66.64447725 181.26144619 70.71576497 184.41064453 75.39111328 C175.75590101 84.14310111 166.73153308 92.45532861 157.12158203 100.14892578 C153.59579918 103.06506318 150.25961425 106.16960676 146.91259766 109.28588867 C142.620423 113.2575529 138.15442989 116.95587661 133.59033203 120.61376953 C131.37675494 122.35756512 131.37675494 122.35756512 129.41064453 124.39111328 C126.41064453 124.39111328 126.41064453 124.39111328 124.97314453 122.99267578 C124.45751953 122.34041016 123.94189453 121.68814453 123.41064453 121.01611328 C99.0839416 92.24802061 60.43929599 75.04176459 23.41064453 71.39111328 C20.4064243 71.24000033 17.40661435 71.20474725 14.39892578 71.18798828 C13.55662918 71.18097397 12.71433258 71.17395966 11.84651184 71.16673279 C9.13866795 71.14929982 6.4310425 71.14287947 3.72314453 71.14111328 C2.79991394 71.14043854 1.87668335 71.13976379 0.92547607 71.1390686 C-12.45322949 71.15463573 -25.48343632 71.44386292 -38.58935547 74.39111328 C-39.3830957 74.56271973 -40.17683594 74.73432617 -40.99462891 74.91113281 C-69.91291642 81.32913434 -96.41836665 95.27042161 -113.08935547 120.51611328 C-127.33892867 143.78722835 -133.72032099 169.40660891 -133.75048828 196.62036133 C-133.75545319 197.70799774 -133.76041809 198.79563416 -133.76553345 199.91622925 C-133.78006935 203.49510345 -133.78694548 207.07393322 -133.79248047 210.65283203 C-133.79530785 211.88586374 -133.79813522 213.11889545 -133.80104828 214.38929176 C-133.81447455 220.25299173 -133.82437481 226.11667587 -133.82825017 231.98039025 C-133.83314652 239.34308285 -133.85615934 246.70548349 -133.8875618 254.0681181 C-133.90636121 259.26319424 -133.91140306 264.45822259 -133.91292572 269.65332985 C-133.9159178 272.11643403 -133.92382681 274.57953809 -133.9371109 277.04260826 C-134.03163564 295.92862965 -133.48325631 315.07395252 -127.83935547 333.26611328 C-127.45529541 334.54796509 -127.45529541 334.54796509 -127.06347656 335.85571289 C-118.38822916 363.88685437 -101.61692917 386.3350813 -75.58935547 400.39111328 C-63.86231761 406.46415698 -51.41047541 410.35831473 -38.58935547 413.39111328 C-37.44660156 413.6622998 -37.44660156 413.6622998 -36.28076172 413.93896484 C-23.20892439 416.82786387 -9.84669663 416.69857482 3.47314453 416.76611328 C4.35698822 416.77414978 5.24083191 416.78218628 6.15145874 416.79046631 C22.77782036 416.9049355 39.25447399 415.47967492 55.22314453 410.57861328 C56.09293945 410.31927002 56.96273438 410.05992676 57.85888672 409.79272461 C84.73048186 401.59901761 110.81923665 387.35272229 129.51611328 365.98486328 C130.45390625 365.19595703 130.45390625 365.19595703 131.41064453 364.39111328 C134.82885617 364.75792867 136.4639115 366.09385842 138.80126953 368.52392578 C139.42904297 369.16587891 140.05681641 369.80783203 140.70361328 370.46923828 C141.34943359 371.14470703 141.99525391 371.82017578 142.66064453 372.51611328 C146.41738631 376.40345754 150.15385941 380.23155877 154.26220703 383.75048828 C159.28665331 388.07165885 163.88724342 392.798021 168.53564453 397.51611328 C176.1684457 405.28797714 176.1684457 405.28797714 184.41064453 412.39111328 C182.80078179 416.26398307 180.18076603 419.06335083 177.34814453 422.07861328 C176.85137207 422.61043213 176.35459961 423.14225098 175.84277344 423.69018555 C174.83430505 424.76546456 173.82326334 425.83833637 172.80957031 426.90869141 C171.62156694 428.16760179 170.44983388 429.44183465 169.28173828 430.71923828 C133.45626178 468.57786316 75.24942556 486.01600093 24.58105469 487.67797852 C18.74755035 487.80163522 12.91660263 487.81358226 7.08203125 487.78222656 C3.54403983 487.76615143 0.00719551 487.78218775 -3.53076172 487.80126953 C-59.4860145 487.85350269 -116.02366404 474.64382025 -157.58935547 435.39111328 C-158.38728516 434.65763672 -159.18521484 433.92416016 -160.00732422 433.16845703 C-195.09186071 399.75726887 -209.44032327 347.39594021 -210.87103271 300.26974487 C-211.00332721 293.35634986 -211.01289921 286.44375633 -210.99233198 279.52930713 C-210.98452911 276.06177362 -210.99183607 272.59425914 -210.99649048 269.12672424 C-211.00188924 263.31384913 -210.99491322 257.5010898 -210.98046875 251.68823242 C-210.96414597 245.04432951 -210.9694521 238.40070307 -210.98594797 231.75680679 C-210.9997243 225.9682305 -211.00140536 220.1797356 -210.99363196 214.39114815 C-210.98904353 210.97070028 -210.98807731 207.55038066 -210.99824142 204.12994194 C-211.10156574 153.39787866 -201.55144524 101.88776582 -167.58935547 62.39111328 C-166.76951172 61.43720703 -165.94966797 60.48330078 -165.10498047 59.50048828 C-124.44183724 13.19694948 -59.0120393 -0.31827818 0 0 Z " fill="#075CE6" transform="translate(260.58935546875,317.60888671875)"/>
<path d="M0 0 C1.26188331 -0.0075729 1.26188331 -0.0075729 2.54925922 -0.01529878 C5.40504436 -0.03114119 8.26080654 -0.03973845 11.11662197 -0.04837227 C13.17006078 -0.05810561 15.22349769 -0.06824432 17.27693266 -0.07875645 C22.94860028 -0.1063724 28.62027639 -0.1274263 34.29197586 -0.14727235 C39.14962861 -0.16503473 44.00726262 -0.1864622 48.86490072 -0.20781206 C94.15058787 -0.40580683 139.43674183 -0.51006355 184.72277139 -0.5922576 C191.46118758 -0.60452828 198.19960287 -0.61727101 204.93801785 -0.6301899 C205.68261539 -0.63160688 206.42721294 -0.63302386 207.19437404 -0.63448378 C231.33439905 -0.68073693 255.4739925 -0.77177463 279.6137789 -0.88703606 C304.42160917 -1.00527189 329.22920465 -1.0811537 354.03731692 -1.10262599 C357.54065503 -1.10567171 361.04399253 -1.10918749 364.5473299 -1.1129818 C365.58158921 -1.11407679 365.58158921 -1.11407679 366.63674265 -1.11519391 C377.7385484 -1.12816505 388.839701 -1.1855791 399.94125017 -1.25941676 C411.09978152 -1.33264387 422.25763813 -1.35732043 433.41645873 -1.33567022 C439.46364471 -1.32533658 445.50885375 -1.3362925 451.55571461 -1.40376854 C457.09055165 -1.46505754 462.6220427 -1.46653036 468.15699463 -1.42011203 C470.16051743 -1.41391412 472.16425345 -1.42979503 474.16738642 -1.46979927 C488.77915196 -1.74434715 488.77915196 -1.74434715 492.67928855 1.44622871 C495.67847353 4.9553249 497.39222556 8.88675597 499.10623074 13.15936089 C499.84335516 14.49138596 500.60017001 15.81308408 501.39138699 17.11370659 C501.97791042 18.17678032 502.56443386 19.23985405 503.16873074 20.33514214 C503.49035183 20.91604103 503.81197292 21.49693993 504.14334011 22.09544182 C505.13386656 23.88600071 506.12015801 25.6788463 507.10623074 27.47186089 C507.79214359 28.71355486 508.47834049 29.95509196 509.16482449 31.19647026 C510.81521656 34.18231137 512.46183089 37.17021452 514.10623074 40.15936089 C510.18018138 46.21988393 506.02105821 51.99626009 501.54373074 57.65936089 C500.29966349 59.24614774 499.05618713 60.83339801 497.81326199 62.42107964 C497.19145046 63.21433647 496.56963894 64.00759331 495.92898464 64.82488823 C493.17227604 68.35551342 490.44882222 71.91108339 487.73123074 75.47186089 C486.94510403 76.50149956 486.94510403 76.50149956 486.14309597 77.55193901 C484.46321205 79.75370654 482.7845456 81.95639712 481.10623074 84.15936089 C480.1582864 85.40338676 480.1582864 85.40338676 479.19119167 86.67254448 C476.47648577 90.23534731 473.76199349 93.7983125 471.04812527 97.36175346 C466.38623438 103.48237227 461.71561152 109.59622988 457.03982449 115.70623589 C452.7210022 121.35147779 448.41265452 127.00465707 444.10623074 132.65936089 C436.59845424 142.51728134 429.0735376 152.36198052 421.54275417 162.20232964 C415.05460239 170.68093495 408.57489273 179.16587372 402.10623074 187.65936089 C394.59842797 197.51726139 387.07353765 207.36198045 379.54275417 217.20232964 C372.36655549 226.58006283 365.20278616 235.96714646 358.04836941 245.36150932 C353.38632514 251.48215456 348.71568084 257.59613931 344.03982449 263.70623589 C339.7210022 269.35147779 335.41265452 275.00465707 331.10623074 280.65936089 C323.59845424 290.51728134 316.0735376 300.36198052 308.54275417 310.20232964 C302.05460239 318.68093495 295.57489273 327.16587372 289.10623074 335.65936089 C281.59842797 345.51726139 274.07353765 355.36198045 266.54275417 365.20232964 C260.05460239 373.68093495 253.57489273 382.16587372 247.10623074 390.65936089 C239.59842797 400.51726139 232.07353765 410.36198045 224.54275417 420.20232964 C218.05460239 428.68093495 211.57489273 437.16587372 205.10623074 445.65936089 C199.69617157 452.76288061 194.28448841 459.86512883 188.85305691 466.95232964 C186.04985751 470.61092839 183.25846607 474.27787632 180.48123074 477.95623589 C179.88528103 478.74288628 179.28933132 479.52953667 178.67532253 480.34002495 C177.52777585 481.85520125 176.38326906 483.37268598 175.24221706 484.89275932 C174.72941189 485.56855034 174.21660671 486.24434135 173.68826199 486.94061089 C173.23684841 487.53938042 172.78543484 488.13814995 172.32034206 488.75506401 C171.10623074 490.15936089 171.10623074 490.15936089 169.10623074 491.15936089 C170.36696948 487.88180036 171.75952176 484.78792005 173.43435574 481.70232964 C173.89688747 480.85001762 174.35941921 479.99770561 174.83596706 479.11956596 C175.33765408 478.20457329 175.83934109 477.28958061 176.35623074 476.34686089 C176.88563259 475.37837212 177.41503445 474.40988335 177.96047878 473.41204643 C182.3935598 465.35254602 187.01324985 457.4106136 191.67703152 449.48309135 C196.14076903 441.87336537 200.46303018 434.1927795 204.73123074 426.47186089 C210.55867916 415.93035648 216.47412545 405.44585214 222.47390652 395.00164604 C225.6484392 389.47398983 228.81591641 383.94229915 231.98123074 378.40936089 C232.32078793 377.81603966 232.66034512 377.22271843 233.01019192 376.61141777 C237.80043948 368.23818154 242.53550813 359.83608589 247.23123074 351.40936089 C251.74393595 343.3121181 256.34773348 335.27663761 261.04373074 327.28436089 C266.72747626 317.60842275 272.21413334 307.83380149 277.64334011 298.01312065 C282.83519089 288.62614123 288.13062604 279.3030392 293.47390652 270.00164604 C296.64843897 264.47399023 299.81609729 258.94240233 302.98123074 253.40936089 C303.32012325 252.81703667 303.65901577 252.22471245 304.00817776 251.61443901 C309.42758645 242.13832813 314.77982315 232.62609075 320.10232449 223.0951519 C325.70104237 213.07660334 331.39690917 203.11515948 337.10623074 193.15936089 C339.73300994 188.57704432 342.35816603 183.99380438 344.98123074 179.40936089 C345.32069729 178.81622093 345.66016384 178.22308098 346.00991726 177.61196709 C350.80025059 169.23854513 355.53540904 160.83626372 360.23123074 152.40936089 C365.29747416 143.31889274 370.49872407 134.31713548 375.77102566 125.34490776 C380.94591815 116.50558488 385.92935468 107.56512443 390.86965847 98.59344292 C391.45175076 97.5375396 392.03384304 96.48163628 392.63357449 95.39373589 C393.13622829 94.47817924 393.6388821 93.5626226 394.15676785 92.61932182 C397.0797059 87.4316101 400.10593708 82.30272144 403.10623074 77.15936089 C249.98623074 77.15936089 96.86623074 77.15936089 -60.89376926 77.15936089 C-59.45833392 73.57077252 -58.41390068 71.19902335 -56.31173801 68.14764214 C-55.79869114 67.39934135 -55.28564426 66.65104057 -54.75705051 65.88006401 C-53.9275388 64.68800346 -53.9275388 64.68800346 -53.08126926 63.47186089 C-52.50376926 62.63461479 -51.92626926 61.7973687 -51.33126926 60.93475151 C-46.90048969 54.53847427 -42.35753365 48.2273254 -37.77584934 41.93865776 C-33.83800214 36.51694118 -30.03083047 31.0167149 -26.26876926 25.47186089 C-8.98909415 0.01230327 -8.98909415 0.01230327 0 0 Z " fill="#EA1F27" transform="translate(3483.893769264221,126.84063911437988)"/>
<path d="M0 0 C0.33 0.66 0.66 1.32 1 2 C-0.04125977 4.32470703 -0.04125977 4.32470703 -1.69140625 7.2578125 C-2.6030957 8.88976562 -2.6030957 8.88976562 -3.53320312 10.5546875 C-4.20936572 11.74494492 -4.88580539 12.93504497 -5.5625 14.125 C-6.25374982 15.35388858 -6.94449911 16.58305883 -7.63476562 17.8125 C-12.56755927 26.57438917 -17.62611171 35.26175967 -22.72241211 43.92944336 C-27.80139113 52.59173801 -32.67932312 61.35910786 -37.53735352 70.14672852 C-42.72917097 79.5335183 -48.0244858 88.85647922 -53.36767578 98.15771484 C-56.54220846 103.68537106 -59.70968568 109.21706174 -62.875 114.75 C-63.21455719 115.34332123 -63.55411438 115.93664246 -63.90396118 116.54794312 C-68.69420874 124.92117935 -73.42927739 133.323275 -78.125 141.75 C-82.63770522 149.84724279 -87.24150274 157.88272328 -91.9375 165.875 C-97.62124552 175.55093813 -103.1079026 185.32555939 -108.53710938 195.14624023 C-113.72896015 204.53321966 -119.02439531 213.85632169 -124.36767578 223.15771484 C-127.54220823 228.68537066 -130.70986656 234.21695856 -133.875 239.75 C-134.21389252 240.34232422 -134.55278503 240.93464844 -134.90194702 241.54492188 C-140.32135571 251.02103276 -145.67359241 260.53327014 -150.99609375 270.06420898 C-156.59481163 280.08275754 -162.29067843 290.0442014 -168 300 C-170.6267792 304.58231657 -173.2519353 309.1655565 -175.875 313.75 C-176.21446655 314.34313995 -176.55393311 314.93627991 -176.90368652 315.5473938 C-181.69401985 323.92081576 -186.4291783 332.32309717 -191.125 340.75 C-196.19044369 349.83903317 -201.39024866 358.83975295 -206.66259766 367.81005859 C-211.87223291 376.70723247 -216.88371267 385.70790225 -221.85131836 394.74169922 C-222.4366333 395.80404785 -223.02194824 396.86639648 -223.625 397.9609375 C-224.13289063 398.88696777 -224.64078125 399.81299805 -225.1640625 400.76708984 C-227.69552641 405.22475542 -230.36253337 409.60422228 -233 414 C-79.55 414 73.9 414 232 414 C228.9551425 419.4807435 226.01086584 424.67795963 222.5 429.8125 C221.6148196 431.12428143 220.73076227 432.43682119 219.84765625 433.75 C219.38375488 434.43964844 218.91985352 435.12929688 218.44189453 435.83984375 C215.90475159 439.6408327 213.42255271 443.47733376 210.9375 447.3125 C205.62077765 455.51089717 200.28487084 463.69657518 194.9375 471.875 C194.38641068 472.71824326 194.38641068 472.71824326 193.82418823 473.57852173 C192.76721352 475.19577753 191.7097855 476.81273703 190.65234375 478.4296875 C190.04382568 479.36022949 189.43530762 480.29077148 188.80834961 481.24951172 C187.91321655 482.61100342 187.91321655 482.61100342 187 484 C186.47473591 485.0307527 185.94947181 486.06150539 185.40829062 487.12349302 C183 490 183 490 179.28074861 490.76014966 C177.74056755 490.79565598 176.19941419 490.79791749 174.6590004 490.77460003 C173.80584145 490.78541785 172.95268251 490.79623567 172.07367027 490.8073813 C169.19488998 490.8364569 166.31789883 490.82254583 163.43902588 490.80900574 C161.36235979 490.8209242 159.28570724 490.83543869 157.20907569 490.85233575 C151.48702955 490.89110378 145.76549565 490.89210732 140.04334307 490.88696134 C133.87815029 490.88779187 127.71313898 490.92290697 121.54803467 490.9533844 C109.46332225 491.00715151 97.37882531 491.02738734 85.29402187 491.03408369 C75.47341126 491.03958924 65.6528568 491.0542895 55.83226776 491.07546425 C53.00697837 491.08143743 50.18168886 491.08735328 47.3563993 491.09324533 C46.30287665 491.09544349 46.30287665 491.09544349 45.22807071 491.09768606 C25.4672728 491.13849983 5.70649374 491.16572607 -14.05434799 491.16634655 C-15.17229163 491.16639417 -15.17229163 491.16639417 -16.31281999 491.16644275 C-20.09041382 491.16658368 -23.86800765 491.16663712 -27.64560148 491.16667839 C-28.39586413 491.16668992 -29.14612679 491.16670144 -29.91912467 491.16671332 C-31.43633964 491.16673648 -32.95355461 491.16675062 -34.47076957 491.16675577 C-58.07549557 491.16721037 -81.67963548 491.21932771 -105.28417969 491.31030273 C-131.79530167 491.41245338 -158.30603319 491.4705899 -184.81736398 491.46717244 C-187.6439109 491.46697074 -190.47045777 491.46694264 -193.2970047 491.46703529 C-193.99298716 491.46703279 -194.68896961 491.46703029 -195.40604245 491.46702771 C-206.61082552 491.46802487 -217.8150716 491.51099296 -229.01968977 491.56858367 C-240.279869 491.6253127 -251.53929493 491.63242209 -262.79961655 491.59259709 C-268.90144036 491.572319 -275.00135052 491.57317184 -281.10298157 491.63042068 C-286.68774649 491.68229647 -292.26909043 491.6743377 -297.85378674 491.61840931 C-299.87534942 491.60873552 -301.89716069 491.62110464 -303.9184179 491.65755405 C-319.01791132 491.91202975 -319.01791132 491.91202975 -323.87195253 487.22955954 C-326.07369279 484.0337557 -327.51408827 480.57917079 -329 477 C-330.22858783 474.76787257 -331.5494455 472.61286321 -332.87890625 470.4375 C-334.10956538 468.29326815 -335.33744304 466.14743744 -336.5625 464 C-337.20251953 462.90816406 -337.84253906 461.81632812 -338.50195312 460.69140625 C-339.40010742 459.11166016 -339.40010742 459.11166016 -340.31640625 457.5 C-340.85724854 456.5615625 -341.39809082 455.623125 -341.95532227 454.65625 C-343.17546245 451.55386038 -343.04669137 450.1271397 -342 447 C-340.35546875 444.66796875 -340.35546875 444.66796875 -338.1875 442.1875 C-334.39432363 437.71226983 -330.80523131 433.15054839 -327.3125 428.4375 C-322.88570647 422.48286875 -318.38086712 416.59672248 -313.8125 410.75 C-309.25285784 404.91168896 -304.75063425 399.0416321 -300.32421875 393.1015625 C-295.82252233 387.09425668 -291.24190645 381.1467533 -286.67626953 375.18798828 C-284.01166072 371.70994806 -281.34931867 368.23017583 -278.6875 364.75 C-278.15930664 364.05946533 -277.63111328 363.36893066 -277.08691406 362.6574707 C-272.7178647 356.94344714 -268.35814901 351.22233991 -264 345.5 C-256.49219724 335.64209949 -248.96730692 325.79738043 -241.43652344 315.95703125 C-234.26032475 306.57929806 -227.09655542 297.19221442 -219.94213867 287.79785156 C-215.2800944 281.67720632 -210.6094501 275.56322158 -205.93359375 269.453125 C-201.61477147 263.80788309 -197.30642379 258.15470382 -193 252.5 C-185.4922235 242.64207955 -177.96730687 232.79738036 -170.43652344 222.95703125 C-163.94837166 214.47842594 -157.468662 205.99348717 -151 197.5 C-143.49219724 187.64209949 -135.96730692 177.79738043 -128.43652344 167.95703125 C-121.26032475 158.57929806 -114.09655542 149.19221442 -106.94213867 139.79785156 C-102.2800944 133.67720632 -97.6094501 127.56322158 -92.93359375 121.453125 C-88.61477147 115.80788309 -84.30642379 110.15470382 -80 104.5 C-72.4922235 94.64207955 -64.96730687 84.79738036 -57.43652344 74.95703125 C-50.94837166 66.47842594 -44.468662 57.99348717 -38 49.5 C-32.06865805 41.71202519 -26.12922264 33.93033403 -20.1796875 26.15625 C-17.93283216 23.2203216 -15.68840486 20.28255434 -13.4453125 17.34375 C-12.85838623 16.57514648 -12.27145996 15.80654297 -11.66674805 15.01464844 C-10.54797853 13.54949158 -9.42962379 12.08401786 -8.31176758 10.61816406 C-5.58204597 7.04455238 -2.82679577 3.49790556 0 0 Z " fill="#075CE6" transform="translate(3766,307)"/>
<path d="M0 0 C25.74 0 51.48 0 78 0 C78.00808685 6.75912872 78.01617371 13.51825745 78.02450562 20.48220825 C78.07858393 65.12981857 78.13487428 109.77742453 78.20132446 154.42501831 C78.20245809 155.18716326 78.20359171 155.94930821 78.20475969 156.73454846 C78.22941254 173.29899162 78.25450548 189.86343408 78.28005161 206.42787588 C78.2925772 214.55136375 78.30500556 222.67485175 78.31738281 230.79833984 C78.31861614 231.60671396 78.31984946 232.41508807 78.32112016 233.24795837 C78.36103249 259.43807672 78.3945279 285.6281985 78.42468691 311.81832975 C78.45571952 338.73761778 78.49324336 365.65688917 78.53890612 392.57615655 C78.54535629 396.38046122 78.55173244 400.18476602 78.55806351 403.98907089 C78.55931181 404.73779453 78.56056012 405.48651817 78.56184625 406.2579304 C78.58173039 418.29836101 78.59479492 430.33878977 78.60529328 442.37923181 C78.61600009 454.4911734 78.63392939 466.60308739 78.65916704 478.71500756 C78.67263657 485.27455918 78.6826973 491.8340831 78.68421364 498.39365005 C78.68567381 504.40336078 78.69631134 510.41298401 78.71413441 516.42266785 C78.71896982 518.5924804 78.72048682 520.76230352 78.71827881 522.93212034 C78.59048808 552.74465925 78.59048808 552.74465925 93 578 C101.32492887 586.06375463 111.30912619 589.87144415 122.74609375 591.09765625 C123.88865128 591.22175369 123.88865128 591.22175369 125.05429077 591.34835815 C136.70496017 592.48988969 148.42955157 592.46911979 160.125 592.625 C168.33375 592.74875 176.5425 592.8725 185 593 C185 616.1 185 639.2 185 663 C165.50711866 663.12032643 165.50711866 663.12032643 157.0859375 663.14648438 C151.37881926 663.16429703 145.67184776 663.18518079 139.96484375 663.22631836 C135.35472399 663.2593347 130.74476196 663.27694033 126.13453293 663.28463173 C124.39100034 663.29010051 122.64747466 663.30077488 120.90401077 663.31719017 C103.12443418 663.47766501 86.76471731 660.95682509 70 655 C68.42992187 654.44699219 68.42992187 654.44699219 66.828125 653.8828125 C41.84559926 644.2995685 22.20956011 623.44616228 11.3125 599.375 C0.71376024 574.9207247 -0.15806672 548.85009494 -0.12025452 522.62612915 C-0.12069112 520.36603005 -0.12156766 518.10593101 -0.12284368 515.84583223 C-0.12507114 509.6635989 -0.12109137 503.48138301 -0.11606562 497.2991519 C-0.11218133 491.30839559 -0.11302714 485.3176411 -0.11374746 479.32688403 C-0.11505795 467.08058744 -0.11173296 454.83429627 -0.10573006 442.58800125 C-0.09980508 430.46950885 -0.09596251 418.35101871 -0.09487724 406.23252487 C-0.0948085 405.47792823 -0.09473976 404.72333159 -0.09466894 403.94586839 C-0.09433059 400.11336933 -0.09402921 396.28087028 -0.09374207 392.44837122 C-0.09164385 365.33048813 -0.08491261 338.21260799 -0.07543945 311.09472656 C-0.0662493 284.75651058 -0.05916849 258.4182954 -0.05493164 232.08007812 C-0.05480011 231.26765902 -0.05466859 230.45523991 -0.05453308 229.61820205 C-0.05321451 221.45926377 -0.0519387 213.30032549 -0.05069422 205.1413872 C-0.04815827 188.5219416 -0.04533702 171.90249606 -0.04234314 155.28305054 C-0.04220585 154.51898113 -0.04206856 153.75491173 -0.04192711 152.96768871 C-0.03273254 101.97845783 -0.01665912 50.98922892 0 0 Z " fill="#075CE6" transform="translate(556,136)"/>
</svg>
