<?xml version="1.0" encoding="UTF-8"?>
<svg version="1.1" xmlns="http://www.w3.org/2000/svg" width="4475" height="1023">
<path d="M0 0 C25.08 0 50.16 0 76 0 C76 218.46 76 436.92 76 662 C50.92 662 25.84 662 0 662 C-0.495 634.28 -0.495 634.28 -1 606 C-3.97 609.96 -6.94 613.92 -10 618 C-31.40228498 644.13174096 -62.15441109 658.22215594 -94.625 665.25 C-95.31505127 665.40106201 -96.00510254 665.55212402 -96.71606445 665.70776367 C-111.48052069 668.70049042 -126.18533648 669.34831922 -141.20947266 669.31567383 C-144.23246544 669.3125183 -147.25447119 669.33605983 -150.27734375 669.36132812 C-195.28452827 669.50844258 -237.35916848 655.1680742 -269.9375 623.5 C-294.66381808 598.79055074 -307.62032142 565.11375001 -314.25 531.375 C-314.40114258 530.61388916 -314.55228516 529.85277832 -314.70800781 529.06860352 C-318.28973208 509.54901476 -318.314542 490.0013871 -318.30158257 470.23651385 C-318.30049785 466.94991436 -318.30543424 463.66333354 -318.310188 460.37673813 C-318.32121286 452.60229957 -318.32176148 444.82790935 -318.31567383 437.0534668 C-318.3096494 429.11178976 -318.32192239 421.17029057 -318.3432439 413.22864383 C-318.36103481 406.3412759 -318.36683386 399.45396366 -318.36360615 392.56657368 C-318.36181962 388.48367368 -318.36415786 384.40090033 -318.37832069 380.31802177 C-318.54338922 328.22910944 -311.04810698 273.93456511 -276 233 C-274.93652344 231.75283203 -274.93652344 231.75283203 -273.8515625 230.48046875 C-248.14710064 201.12326757 -211.42911821 185.60651386 -173 182 C-169.63135762 181.84564794 -166.26639736 181.8128145 -162.89453125 181.796875 C-161.93463791 181.79117493 -160.97474457 181.78547485 -159.98576355 181.77960205 C-157.95609624 181.77019303 -155.92641394 181.76363446 -153.89672852 181.75976562 C-150.86640787 181.75017069 -147.83679934 181.71915431 -144.80664062 181.6875 C-128.00966167 181.59587575 -111.57573008 183.21981433 -95.25 187.3125 C-94.38842285 187.52487305 -93.5268457 187.73724609 -92.63916016 187.95605469 C-57.10209383 196.98945764 -21.72025367 216.9196195 -1 248 C-0.67 166.16 -0.34 84.32 0 0 Z M-156 251 C-156.98540771 251.24943359 -156.98540771 251.24943359 -157.99072266 251.50390625 C-185.38379526 258.62412729 -209.45500521 274.34677655 -224 299 C-237.03507348 321.87041426 -242.13626548 346.87911928 -242.16113281 373.01098633 C-242.16609772 374.27593933 -242.17106262 375.54089233 -242.17617798 376.84417725 C-242.18918837 380.28909966 -242.1957254 383.73400269 -242.20018864 387.17894578 C-242.20314004 389.34305652 -242.20724866 391.50716221 -242.21169281 393.67127037 C-242.22534266 400.47629321 -242.23501953 407.28130421 -242.2388947 414.08633977 C-242.24335859 421.87746596 -242.26083907 429.66841524 -242.2898953 437.45948774 C-242.3117033 443.52281591 -242.32160916 449.58609505 -242.32293582 455.64946193 C-242.32397103 459.25113215 -242.32959696 462.85263562 -242.34775543 466.45426369 C-242.53072321 504.95408894 -237.2587826 542.46884544 -209.62548828 571.38623047 C-188.8020552 592.05953967 -159.08230577 603.02437376 -129.94140625 603.203125 C-129.19398666 603.20882507 -128.44656708 603.21452515 -127.67649841 603.22039795 C-126.10083399 603.2297838 -124.5251505 603.23635616 -122.94946289 603.24023438 C-120.59939918 603.24984904 -118.25024659 603.28089534 -115.90039062 603.3125 C-102.23631281 603.40891918 -88.84421665 601.85538047 -75.875 597.3125 C-75.13620605 597.05831299 -74.39741211 596.80412598 -73.63623047 596.54223633 C-45.34341596 586.40645536 -23.00990514 565.14679968 -10.13623047 538.19140625 C-3.96066032 524.63794257 0.10006638 509.39109417 0.14044189 494.46414185 C0.14615204 493.19172134 0.15186218 491.91930084 0.15774536 490.60832214 C0.15899046 489.21560679 0.16011561 487.82289132 0.16113281 486.43017578 C0.16576722 484.94935484 0.17079271 483.46853508 0.17617798 481.98771667 C0.18924995 477.97678751 0.19573754 473.96587504 0.20018864 469.95492792 C0.20312973 467.44127209 0.20723659 464.92762071 0.21169281 462.41396713 C0.22535833 454.52718794 0.2350278 446.64041906 0.2388947 438.75362885 C0.24336362 429.69180201 0.26086106 420.6301269 0.2898953 411.56834614 C0.31162783 404.53784579 0.32160522 397.50738774 0.32293582 390.47685421 C0.32397625 386.29065339 0.32971849 382.10459535 0.34775543 377.91843033 C0.36443604 373.97027815 0.36629665 370.02237298 0.35761642 366.07419777 C0.35685641 364.63969948 0.36104848 363.20518679 0.37107468 361.77072334 C0.54889941 334.70072212 -7.5638341 308.9059046 -25 288 C-25.77085937 287.06542969 -26.54171875 286.13085938 -27.3359375 285.16796875 C-46.1064377 263.45128972 -73.64187071 250.8327237 -102 248 C-104.6829847 247.88991857 -107.34077241 247.81398888 -110.0234375 247.796875 C-111.13258011 247.78635353 -111.13258011 247.78635353 -112.26412964 247.77561951 C-114.63448247 247.7582245 -117.00458571 247.75176843 -119.375 247.75 C-120.1836853 247.74932526 -120.99237061 247.74865051 -121.82556152 247.74795532 C-133.47753192 247.76343073 -144.66272482 248.06202273 -156 251 Z " fill="#FFFFFF" transform="translate(3233,137)"/>
<path d="M0 0 C25.08 0 50.16 0 76 0 C76 218.46 76 436.92 76 662 C50.92 662 25.84 662 0 662 C-0.495 634.28 -0.495 634.28 -1 606 C-3.97 609.96 -6.94 613.92 -10 618 C-31.40228498 644.13174096 -62.15441109 658.22215594 -94.625 665.25 C-95.31505127 665.40106201 -96.00510254 665.55212402 -96.71606445 665.70776367 C-111.48052069 668.70049042 -126.18533648 669.34831922 -141.20947266 669.31567383 C-144.23246544 669.3125183 -147.25447119 669.33605983 -150.27734375 669.36132812 C-195.28452827 669.50844258 -237.35916848 655.1680742 -269.9375 623.5 C-294.66381808 598.79055074 -307.62032142 565.11375001 -314.25 531.375 C-314.40114258 530.61388916 -314.55228516 529.85277832 -314.70800781 529.06860352 C-318.28973208 509.54901476 -318.314542 490.0013871 -318.30158257 470.23651385 C-318.30049785 466.94991436 -318.30543424 463.66333354 -318.310188 460.37673813 C-318.32121286 452.60229957 -318.32176148 444.82790935 -318.31567383 437.0534668 C-318.3096494 429.11178976 -318.32192239 421.17029057 -318.3432439 413.22864383 C-318.36103481 406.3412759 -318.36683386 399.45396366 -318.36360615 392.56657368 C-318.36181962 388.48367368 -318.36415786 384.40090033 -318.37832069 380.31802177 C-318.54338922 328.22910944 -311.04810698 273.93456511 -276 233 C-274.93652344 231.75283203 -274.93652344 231.75283203 -273.8515625 230.48046875 C-248.14710064 201.12326757 -211.42911821 185.60651386 -173 182 C-169.63135762 181.84564794 -166.26639736 181.8128145 -162.89453125 181.796875 C-161.93463791 181.79117493 -160.97474457 181.78547485 -159.98576355 181.77960205 C-157.95609624 181.77019303 -155.92641394 181.76363446 -153.89672852 181.75976562 C-150.86640787 181.75017069 -147.83679934 181.71915431 -144.80664062 181.6875 C-128.00966167 181.59587575 -111.57573008 183.21981433 -95.25 187.3125 C-94.38842285 187.52487305 -93.5268457 187.73724609 -92.63916016 187.95605469 C-57.10209383 196.98945764 -21.72025367 216.9196195 -1 248 C-0.67 166.16 -0.34 84.32 0 0 Z M-156 251 C-156.98540771 251.24943359 -156.98540771 251.24943359 -157.99072266 251.50390625 C-185.38379526 258.62412729 -209.45500521 274.34677655 -224 299 C-237.03507348 321.87041426 -242.13626548 346.87911928 -242.16113281 373.01098633 C-242.16609772 374.27593933 -242.17106262 375.54089233 -242.17617798 376.84417725 C-242.18918837 380.28909966 -242.1957254 383.73400269 -242.20018864 387.17894578 C-242.20314004 389.34305652 -242.20724866 391.50716221 -242.21169281 393.67127037 C-242.22534266 400.47629321 -242.23501953 407.28130421 -242.2388947 414.08633977 C-242.24335859 421.87746596 -242.26083907 429.66841524 -242.2898953 437.45948774 C-242.3117033 443.52281591 -242.32160916 449.58609505 -242.32293582 455.64946193 C-242.32397103 459.25113215 -242.32959696 462.85263562 -242.34775543 466.45426369 C-242.53072321 504.95408894 -237.2587826 542.46884544 -209.62548828 571.38623047 C-188.8020552 592.05953967 -159.08230577 603.02437376 -129.94140625 603.203125 C-129.19398666 603.20882507 -128.44656708 603.21452515 -127.67649841 603.22039795 C-126.10083399 603.2297838 -124.5251505 603.23635616 -122.94946289 603.24023438 C-120.59939918 603.24984904 -118.25024659 603.28089534 -115.90039062 603.3125 C-102.23631281 603.40891918 -88.84421665 601.85538047 -75.875 597.3125 C-75.13620605 597.05831299 -74.39741211 596.80412598 -73.63623047 596.54223633 C-45.34341596 586.40645536 -23.00990514 565.14679968 -10.13623047 538.19140625 C-3.96066032 524.63794257 0.10006638 509.39109417 0.14044189 494.46414185 C0.14615204 493.19172134 0.15186218 491.91930084 0.15774536 490.60832214 C0.15899046 489.21560679 0.16011561 487.82289132 0.16113281 486.43017578 C0.16576722 484.94935484 0.17079271 483.46853508 0.17617798 481.98771667 C0.18924995 477.97678751 0.19573754 473.96587504 0.20018864 469.95492792 C0.20312973 467.44127209 0.20723659 464.92762071 0.21169281 462.41396713 C0.22535833 454.52718794 0.2350278 446.64041906 0.2388947 438.75362885 C0.24336362 429.69180201 0.26086106 420.6301269 0.2898953 411.56834614 C0.31162783 404.53784579 0.32160522 397.50738774 0.32293582 390.47685421 C0.32397625 386.29065339 0.32971849 382.10459535 0.34775543 377.91843033 C0.36443604 373.97027815 0.36629665 370.02237298 0.35761642 366.07419777 C0.35685641 364.63969948 0.36104848 363.20518679 0.37107468 361.77072334 C0.54889941 334.70072212 -7.5638341 308.9059046 -25 288 C-25.77085937 287.06542969 -26.54171875 286.13085938 -27.3359375 285.16796875 C-46.1064377 263.45128972 -73.64187071 250.8327237 -102 248 C-104.6829847 247.88991857 -107.34077241 247.81398888 -110.0234375 247.796875 C-111.13258011 247.78635353 -111.13258011 247.78635353 -112.26412964 247.77561951 C-114.63448247 247.7582245 -117.00458571 247.75176843 -119.375 247.75 C-120.1836853 247.74932526 -120.99237061 247.74865051 -121.82556152 247.74795532 C-133.47753192 247.76343073 -144.66272482 248.06202273 -156 251 Z " fill="#FFFFFF" transform="translate(2193,137)"/>
<path d="M0 0 C1.0621875 0.57492187 2.124375 1.14984375 3.21875 1.7421875 C14.57221351 8.09193384 24.58527431 16.0623245 34 25 C34.49612793 25.4635791 34.99225586 25.9271582 35.50341797 26.40478516 C79.56893234 67.78486652 93.36544714 128.84715423 97 187 C97 209.11 97 231.22 97 254 C-13.55 254 -124.1 254 -238 254 C-234.92206952 294.01309622 -228.81705456 328.68351641 -200 358 C-199.26652344 358.74636719 -198.53304687 359.49273438 -197.77734375 360.26171875 C-169.13694203 387.65896447 -125.88446131 395.99886224 -87.55078125 395.1875 C-44.81533702 393.69161921 -4.50669676 380.0518967 27.34765625 350.84765625 C28.05792969 350.19667969 28.76820312 349.54570313 29.5 348.875 C30.1084375 348.29492188 30.716875 347.71484375 31.34375 347.1171875 C31.8903125 346.74851562 32.436875 346.37984375 33 346 C36.98650153 347.32883384 38.51015188 349.94527803 40.9375 353.1875 C44.88197171 358.33864896 48.93465946 363.35016463 53.1875 368.25 C57.24799812 372.93857007 61.20970434 377.67897511 65.05078125 382.55078125 C68.01072437 386.26998833 71.06698477 389.90932326 74.1171875 393.5546875 C75.73988691 395.66217677 76.92994943 397.5783066 78 400 C40.56268413 442.73148175 -8.95687747 461.73143123 -65.13208008 465.80371094 C-73.60304271 466.23359505 -82.08222645 466.24482327 -90.5625 466.25 C-92.05624649 466.25101212 -92.05624649 466.25101212 -93.58016968 466.25204468 C-132.68006943 466.21009578 -171.62201299 460.43871564 -207 443 C-208.08619629 442.47019531 -208.08619629 442.47019531 -209.19433594 441.9296875 C-250.99245119 421.33619873 -281.4125183 384.89297592 -296.93408203 341.16308594 C-307.0313991 311.26963917 -310.15447736 280.46086981 -310.16796875 249.07421875 C-310.17119629 247.2746427 -310.17456138 245.47506689 -310.17805481 243.67549133 C-310.18400084 239.91964106 -310.18589961 236.16381362 -310.18530273 232.40795898 C-310.18522181 228.61396482 -310.19211687 224.82009227 -310.20581055 221.02612305 C-310.41443747 162.29983261 -305.78150929 102.1064661 -270 53 C-269.59233398 52.43152344 -269.18466797 51.86304688 -268.76464844 51.27734375 C-239.11823542 10.31817675 -194.05547103 -11.89242006 -145 -20 C-96.67409337 -27.52616579 -43.41394054 -24.15144891 0 0 Z M-191 75 C-191.81339844 75.68449219 -192.62679687 76.36898437 -193.46484375 77.07421875 C-222.43478155 101.93747816 -233.95848757 138.13702123 -237.703125 174.88671875 C-238.01786967 179.24758897 -238 183.62778622 -238 188 C-151.54 188 -65.08 188 24 188 C24.17450436 172.08387954 24.17450436 172.08387954 22.8125 156.4375 C22.68012939 155.48552734 22.54775879 154.53355469 22.41137695 153.55273438 C17.58251112 120.9951707 3.28326058 88.99587585 -23.56518555 68.70751953 C-40.22470516 56.74085588 -59.62266517 49.33490295 -80 47 C-80.825 46.89042969 -81.65 46.78085937 -82.5 46.66796875 C-119.0815477 42.48562717 -163.00291775 49.60729749 -191 75 Z " fill="#FFFFFF" transform="translate(4378,331)"/>
<path d="M0 0 C3.24025302 0.00315578 6.47958577 -0.02037904 9.71972656 -0.0456543 C23.2306215 -0.08681923 36.21222146 0.90796082 49.50878906 3.31567383 C51.11681396 3.60583374 51.11681396 3.60583374 52.75732422 3.90185547 C55.17195244 4.37997074 57.55676347 4.91333447 59.94628906 5.50317383 C60.79352539 5.71039063 61.64076172 5.91760742 62.51367188 6.13110352 C107.08958989 17.52436162 144.60811807 45.30821785 168.1496582 84.89526367 C174.20450273 95.34954771 179.27381439 106.00537079 183.50878906 117.31567383 C183.77884766 118.03223145 184.04890625 118.74878906 184.32714844 119.48706055 C203.01003137 169.96544241 200.50878906 221.80936748 200.50878906 275.31567383 C90.28878906 275.31567383 -19.93121094 275.31567383 -133.49121094 275.31567383 C-130.03665812 312.16423723 -126.05719541 343.39188116 -102.49121094 372.31567383 C-101.87890625 373.09297852 -101.26660156 373.8702832 -100.63574219 374.67114258 C-82.96339642 395.9608555 -55.8997232 407.5957093 -29.49121094 413.31567383 C-28.39752197 413.56341553 -28.39752197 413.56341553 -27.28173828 413.81616211 C-0.81119 419.53616662 31.32691217 418.91133837 57.50878906 412.31567383 C58.37503906 412.10136719 59.24128906 411.88706055 60.13378906 411.66625977 C89.59048613 404.13770661 114.50399173 389.04163525 136.50878906 368.31567383 C140.89079096 369.90154118 143.37779954 373.34211766 146.25878906 376.81567383 C146.79028564 377.44642822 147.32178223 378.07718262 147.86938477 378.72705078 C151.50846876 383.06275785 155.07563721 387.45391984 158.58691406 391.89379883 C162.9767964 397.42576437 167.49052356 402.85921121 171.97363281 408.31567383 C173.16666016 409.76973633 173.16666016 409.76973633 174.38378906 411.25317383 C175.10308594 412.12844727 175.82238281 413.0037207 176.56347656 413.90551758 C177.52640625 415.09854492 177.52640625 415.09854492 178.50878906 416.31567383 C179.13011719 416.97696289 179.75144531 417.63825195 180.39160156 418.31958008 C181.50878906 420.31567383 181.50878906 420.31567383 180.98535156 422.72973633 C176.39613634 430.76693335 168.65936672 437.55270827 161.50878906 443.31567383 C160.56519531 444.08524414 159.62160156 444.85481445 158.64941406 445.64770508 C117.4947526 478.61758182 64.82103772 488.03325465 13.32128906 487.75317383 C12.12566345 487.75013245 10.93003784 487.74709106 9.69818115 487.74395752 C-8.98999183 487.67388505 -27.11878729 486.94977961 -45.49121094 483.31567383 C-47.13742432 482.99421387 -47.13742432 482.99421387 -48.81689453 482.66625977 C-87.19851379 474.88918487 -121.0902919 458.33514616 -149.49121094 431.31567383 C-150.17570312 430.69563477 -150.86019531 430.0755957 -151.56542969 429.43676758 C-163.57503178 418.18248637 -172.79918486 403.75379192 -180.49121094 389.31567383 C-180.84521973 388.65164551 -181.19922852 387.98761719 -181.56396484 387.3034668 C-203.20854208 345.87304421 -205.02147423 300.39111745 -204.88232422 254.74047852 C-204.8652541 249.08407085 -204.8753723 243.42808726 -204.89264584 237.77169418 C-205.068653 169.91711192 -195.14297806 102.24003377 -145.22167969 51.97973633 C-116.40003487 23.81974925 -77.92662671 8.22087789 -38.49121094 2.31567383 C-37.31703613 2.13689697 -36.14286133 1.95812012 -34.93310547 1.77392578 C-23.30498839 0.13838462 -11.72833284 -0.02379508 0 0 Z M-34.49121094 72.31567383 C-35.19858398 72.48728027 -35.90595703 72.65888672 -36.63476562 72.83569336 C-58.08523859 78.18159074 -76.5895713 87.85421799 -92.49121094 103.31567383 C-93.60882812 104.34047852 -93.60882812 104.34047852 -94.74902344 105.38598633 C-123.50185461 132.53587221 -131.39681554 173.61655666 -133.49121094 211.31567383 C-47.03121094 211.31567383 39.42878906 211.31567383 128.50878906 211.31567383 C128.50878906 169.34758684 119.73686761 130.52616748 90.13378906 99.50317383 C77.4340037 87.2524615 62.10184704 79.0543088 45.32128906 73.94067383 C44.53874756 73.70195557 43.75620605 73.4632373 42.94995117 73.21728516 C30.0081012 69.51406512 17.24164541 68.94338478 3.88378906 69.00317383 C3.04151764 69.00499664 2.19924622 69.00681946 1.33145142 69.00869751 C-10.81756948 69.0530291 -22.65071467 69.33373067 -34.49121094 72.31567383 Z " fill="#FFFFFF" transform="translate(2600.4912109375,318.684326171875)"/>
<path d="M0 0 C3.29013484 0.01610897 6.57904197 0.00001732 9.86914062 -0.01904297 C57.88137921 -0.06726843 108.55566312 11.88195178 145.29101562 44.39111328 C145.78053711 44.82037109 146.27005859 45.24962891 146.77441406 45.69189453 C186.56599355 80.71454027 204.49861698 130.98878001 208.08364868 182.97024536 C208.61251361 192.78068354 208.45590946 202.62861187 208.45898438 212.44970703 C208.46220599 214.88566608 208.46557071 217.32162495 208.46907043 219.75758362 C208.47503335 224.85019376 208.47691336 229.94278701 208.47631836 235.03540039 C208.47621712 241.49647987 208.48984257 247.95744852 208.50709057 254.41850185 C208.51832268 259.44890317 208.52023413 264.47927868 208.51970863 269.50969124 C208.52087298 271.88822879 208.52520547 274.26676736 208.533041 276.64529228 C208.70886182 335.5454622 195.97738209 392.51339472 153.54101562 435.57861328 C127.44577869 461.42820353 93.47185573 476.66271289 57.66601562 483.64111328 C56.89265869 483.79225586 56.11930176 483.94339844 55.32250977 484.09912109 C39.22715831 487.02105151 23.30962799 487.73874848 6.97973633 487.70678711 C3.6254805 487.70363393 0.27211603 487.72715951 -3.08203125 487.75244141 C-21.40040234 487.8063664 -39.43856471 486.20060881 -57.33398438 482.14111328 C-58.74043213 481.82533325 -58.74043213 481.82533325 -60.17529297 481.50317383 C-89.16878765 474.7402964 -116.28185495 462.16195602 -138.70898438 442.39111328 C-140.16884766 441.13041016 -140.16884766 441.13041016 -141.65820312 439.84423828 C-180.16325364 406.04336877 -197.44415966 354.35079476 -200.70898438 304.39111328 C-200.84398679 300.31028721 -200.86583632 296.2332422 -200.87011719 292.15039062 C-200.87508209 290.99071274 -200.880047 289.83103485 -200.88516235 288.63621521 C-200.89965787 284.83315413 -200.90656733 281.03013485 -200.91210938 277.22705078 C-200.91641333 275.22750933 -200.92071787 273.22796789 -200.92508388 271.22842658 C-200.93685176 265.65408833 -200.94441589 260.07975994 -200.94787908 254.50541055 C-200.95233463 247.379383 -200.96977966 240.25354965 -200.99887967 233.127581 C-201.02077708 227.56519155 -201.0305982 222.00285553 -201.03192019 216.44042361 C-201.03294962 213.14433324 -201.03998668 209.84846318 -201.05673981 206.55241013 C-201.31305532 152.21555488 -189.56149215 98.3420528 -151.70898438 57.39111328 C-151.21849609 56.85679687 -150.72800781 56.32248047 -150.22265625 55.77197266 C-137.6283547 42.21259053 -123.14327551 31.81428178 -106.70898438 23.39111328 C-106.04318359 23.0459668 -105.37738281 22.70082031 -104.69140625 22.34521484 C-72.26014406 5.7238028 -36.15162915 -0.20943457 0 0 Z M-34.70898438 73.39111328 C-35.39460449 73.56803711 -36.08022461 73.74496094 -36.78662109 73.92724609 C-41.51133955 75.19578863 -46.11725894 76.70715941 -50.70898438 78.39111328 C-51.88976562 78.82166016 -53.07054687 79.25220703 -54.28710938 79.69580078 C-68.78490355 85.44940968 -80.75306712 94.43519603 -91.70898438 105.39111328 C-92.44761719 106.12974609 -93.18625 106.86837891 -93.94726562 107.62939453 C-99.55326393 113.58372671 -103.69210566 120.29489696 -107.70898438 127.39111328 C-108.31871094 128.46103516 -108.9284375 129.53095703 -109.55664062 130.63330078 C-120.73043156 151.50741571 -124.84298858 175.88908742 -124.87011719 199.36669922 C-124.87508209 200.41546738 -124.880047 201.46423553 -124.88516235 202.54478455 C-124.89967288 205.98835936 -124.90656974 209.43188801 -124.91210938 212.87548828 C-124.91493675 214.06347267 -124.91776413 215.25145706 -124.92067719 216.47544098 C-124.93562983 222.77073892 -124.94488228 229.0660142 -124.94921875 235.36132812 C-124.95467693 241.80249105 -124.9786602 248.24343978 -125.0071907 254.68453598 C-125.02599787 259.69002853 -125.03103234 264.69547153 -125.03255463 269.7009964 C-125.03554447 272.07199516 -125.04344548 274.44299384 -125.05673981 276.81395721 C-125.24480816 312.95349774 -119.71024027 348.89277997 -95.70898438 377.39111328 C-95.06574219 378.18001953 -94.4225 378.96892578 -93.75976562 379.78173828 C-74.17957458 402.80022535 -45.30153378 414.46107168 -15.70898438 417.39111328 C-12.89992449 417.53902359 -10.09582449 417.57729326 -7.28320312 417.59423828 C-6.50202621 417.60125259 -5.7208493 417.60826691 -4.91600037 417.61549377 C-2.4094358 417.63290231 0.09689283 417.63934548 2.60351562 417.64111328 C3.4579425 417.64178802 4.31236938 417.64246277 5.19268799 417.64315796 C17.4256564 417.62777582 29.37653621 417.46494701 41.29101562 414.39111328 C41.96600098 414.21950684 42.64098633 414.04790039 43.33642578 413.87109375 C63.25935317 408.60692474 80.33322666 399.70608817 95.29101562 385.39111328 C96.03996094 384.71693359 96.78890625 384.04275391 97.56054688 383.34814453 C121.9805398 360.5533 130.81513445 324.61568138 132.29101562 292.39111328 C132.48367214 285.07028 132.45635557 277.74518257 132.45898438 270.42236328 C132.46220669 268.29406717 132.46557146 266.16577126 132.46907043 264.03747559 C132.47503073 259.5895944 132.47691363 255.14173255 132.47631836 250.69384766 C132.47621713 245.05423082 132.48984277 239.41474099 132.50709057 233.77515411 C132.51832944 229.38048762 132.52023393 224.98585064 132.51970863 220.59117126 C132.52087196 218.51520858 132.52519843 216.4392447 132.533041 214.36329651 C132.59285388 196.89092289 132.22289371 179.13484701 128.04101562 162.07861328 C127.71568848 160.71518799 127.71568848 160.71518799 127.38378906 159.32421875 C122.78657966 140.75554719 114.98217131 123.85548433 102.29101562 109.39111328 C101.65550781 108.62412109 101.02 107.85712891 100.36523438 107.06689453 C86.33433893 90.50537666 66.39395414 80.13021613 45.66601562 74.57861328 C44.93946777 74.38372314 44.21291992 74.18883301 43.46435547 73.98803711 C30.24564122 70.67825311 17.15098271 70.01765185 3.60351562 70.07861328 C2.7640741 70.0804361 1.92463257 70.08225891 1.05975342 70.08413696 C-11.0475863 70.12844232 -22.92141685 70.33715567 -34.70898438 73.39111328 Z " fill="#FFFFFF" transform="translate(1022.708984375,318.60888671875)"/>
<path d="M0 0 C25.41 0 50.82 0 77 0 C77.01458252 9.20567871 77.02916504 18.41135742 77.04418945 27.89599609 C77.09301871 57.40095659 77.15644764 86.9058697 77.22898628 116.41078105 C77.24025351 120.99911418 77.25139211 125.58744761 77.26245117 130.17578125 C77.26465486 131.0891784 77.26685854 132.00257554 77.269129 132.94365139 C77.30443456 147.70426209 77.32933667 162.46487275 77.35034702 177.22550993 C77.37216291 192.38813685 77.40526793 207.55070931 77.44870156 222.71328986 C77.47511888 232.05813866 77.49288715 241.40291969 77.49934604 250.74780394 C77.50463044 257.16894657 77.5209488 263.59000417 77.54566566 270.01110111 C77.55957695 273.70745876 77.56889085 277.40366456 77.56500816 281.10004997 C77.53869098 312.76731035 81.0646375 344.66140638 102 370 C102.66386719 370.82628906 103.32773438 371.65257812 104.01171875 372.50390625 C122.98230792 394.91094225 151.24701657 406.18619245 180 409 C182.95478357 409.14999688 185.90501052 409.18688292 188.86328125 409.203125 C189.69474167 409.20882507 190.52620209 409.21452515 191.38285828 409.22039795 C193.13844556 409.22979484 194.89405005 409.23636064 196.6496582 409.24023438 C199.26742647 409.2498347 201.88437198 409.28086461 204.50195312 409.3125 C219.66745022 409.40862848 234.65863495 407.88314537 249.1875 403.3125 C250.00863281 403.05831299 250.82976562 402.80412598 251.67578125 402.54223633 C264.97852162 398.24226965 276.18848417 391.82912695 287 383 C287.64066406 382.52304687 288.28132813 382.04609375 288.94140625 381.5546875 C307.42455995 367.23131549 316.68764028 341.78498293 319.72022343 319.4598856 C321.41008058 304.60211814 321.17220865 289.65785018 321.20060861 274.72703278 C321.20870002 271.03195392 321.22236689 267.33689487 321.23532104 263.64183044 C321.25696136 257.25618685 321.27515055 250.87054113 321.29092598 244.48488045 C321.31373906 235.25254164 321.3418653 226.02022488 321.37124526 216.78790491 C321.41878192 201.80530902 321.46208334 186.82270406 321.50268555 171.84008789 C321.54211167 157.29483333 321.58355468 142.74958679 321.62768555 128.2043457 C321.63177196 126.85714798 321.63177196 126.85714798 321.63594092 125.48273415 C321.64962157 120.97660405 321.66334161 116.47047407 321.67708123 111.96434414 C321.79082696 74.64291192 321.89689746 37.32146344 322 0 C346.75 0 371.5 0 397 0 C397 156.09 397 312.18 397 473 C372.25 473 347.5 473 322 473 C321.67 453.2 321.34 433.4 321 413 C317.37 417.62 313.74 422.24 310 427 C280.35857674 459.17178866 236.98791388 478.15644682 193.40948486 480.11651611 C186.48203621 480.35367916 179.55604475 480.41642302 172.625 480.4375 C171.66038849 480.44376404 170.69577698 480.45002808 169.70193481 480.45648193 C126.08772393 480.63551573 83.03448368 468.04653121 51.15625 437.1796875 C10.86082047 397.05794516 0.02776068 339.35691382 -0.12025452 284.52218628 C-0.12594694 279.92043804 -0.12301409 275.31874884 -0.11606562 270.71700788 C-0.11169104 267.07311853 -0.11321244 263.4292306 -0.1139679 259.78533936 C-0.11448875 253.49304652 -0.11138817 247.20076417 -0.10573006 240.90847397 C-0.09755507 231.81121257 -0.09499373 222.71395616 -0.09374207 213.61669149 C-0.09156091 198.85204276 -0.08492636 184.08739961 -0.07543945 169.32275391 C-0.06624101 154.99202502 -0.05917211 140.66129765 -0.05493164 126.33056641 C-0.05466892 125.44517075 -0.05440619 124.55977509 -0.05413551 123.64754926 C-0.05283034 119.20516745 -0.05156666 114.76278564 -0.05032361 110.32040381 C-0.03998018 73.54693093 -0.02155771 36.77346836 0 0 Z " fill="#FFFFFF" transform="translate(1350,326)"/>
<path d="M0 0 C3.54221877 0.01614324 7.08330255 -0.00000683 10.62548828 -0.01904297 C70.86032896 -0.07472009 128.56330061 17.79654728 171.91064453 60.64111328 C172.5817627 61.30272461 173.25288086 61.96433594 173.94433594 62.64599609 C177.91575971 66.64447725 181.26144619 70.71576497 184.41064453 75.39111328 C175.75590101 84.14310111 166.73153308 92.45532861 157.12158203 100.14892578 C153.59579918 103.06506318 150.25961425 106.16960676 146.91259766 109.28588867 C142.620423 113.2575529 138.15442989 116.95587661 133.59033203 120.61376953 C131.37675494 122.35756512 131.37675494 122.35756512 129.41064453 124.39111328 C126.41064453 124.39111328 126.41064453 124.39111328 124.97314453 122.99267578 C124.45751953 122.34041016 123.94189453 121.68814453 123.41064453 121.01611328 C99.0839416 92.24802061 60.43929599 75.04176459 23.41064453 71.39111328 C20.4064243 71.24000033 17.40661435 71.20474725 14.39892578 71.18798828 C13.55662918 71.18097397 12.71433258 71.17395966 11.84651184 71.16673279 C9.13866795 71.14929982 6.4310425 71.14287947 3.72314453 71.14111328 C2.79991394 71.14043854 1.87668335 71.13976379 0.92547607 71.1390686 C-12.45322949 71.15463573 -25.48343632 71.44386292 -38.58935547 74.39111328 C-39.3830957 74.56271973 -40.17683594 74.73432617 -40.99462891 74.91113281 C-69.91291642 81.32913434 -96.41836665 95.27042161 -113.08935547 120.51611328 C-127.33892867 143.78722835 -133.72032099 169.40660891 -133.75048828 196.62036133 C-133.75545319 197.70799774 -133.76041809 198.79563416 -133.76553345 199.91622925 C-133.78006935 203.49510345 -133.78694548 207.07393322 -133.79248047 210.65283203 C-133.79530785 211.88586374 -133.79813522 213.11889545 -133.80104828 214.38929176 C-133.81447455 220.25299173 -133.82437481 226.11667587 -133.82825017 231.98039025 C-133.83314652 239.34308285 -133.85615934 246.70548349 -133.8875618 254.0681181 C-133.90636121 259.26319424 -133.91140306 264.45822259 -133.91292572 269.65332985 C-133.9159178 272.11643403 -133.92382681 274.57953809 -133.9371109 277.04260826 C-134.03163564 295.92862965 -133.48325631 315.07395252 -127.83935547 333.26611328 C-127.45529541 334.54796509 -127.45529541 334.54796509 -127.06347656 335.85571289 C-118.38822916 363.88685437 -101.61692917 386.3350813 -75.58935547 400.39111328 C-63.86231761 406.46415698 -51.41047541 410.35831473 -38.58935547 413.39111328 C-37.44660156 413.6622998 -37.44660156 413.6622998 -36.28076172 413.93896484 C-23.20892439 416.82786387 -9.84669663 416.69857482 3.47314453 416.76611328 C4.35698822 416.77414978 5.24083191 416.78218628 6.15145874 416.79046631 C22.77782036 416.9049355 39.25447399 415.47967492 55.22314453 410.57861328 C56.09293945 410.31927002 56.96273438 410.05992676 57.85888672 409.79272461 C84.73048186 401.59901761 110.81923665 387.35272229 129.51611328 365.98486328 C130.45390625 365.19595703 130.45390625 365.19595703 131.41064453 364.39111328 C134.82885617 364.75792867 136.4639115 366.09385842 138.80126953 368.52392578 C139.42904297 369.16587891 140.05681641 369.80783203 140.70361328 370.46923828 C141.34943359 371.14470703 141.99525391 371.82017578 142.66064453 372.51611328 C146.41738631 376.40345754 150.15385941 380.23155877 154.26220703 383.75048828 C159.28665331 388.07165885 163.88724342 392.798021 168.53564453 397.51611328 C176.1684457 405.28797714 176.1684457 405.28797714 184.41064453 412.39111328 C182.80078179 416.26398307 180.18076603 419.06335083 177.34814453 422.07861328 C176.85137207 422.61043213 176.35459961 423.14225098 175.84277344 423.69018555 C174.83430505 424.76546456 173.82326334 425.83833637 172.80957031 426.90869141 C171.62156694 428.16760179 170.44983388 429.44183465 169.28173828 430.71923828 C133.45626178 468.57786316 75.24942556 486.01600093 24.58105469 487.67797852 C18.74755035 487.80163522 12.91660263 487.81358226 7.08203125 487.78222656 C3.54403983 487.76615143 0.00719551 487.78218775 -3.53076172 487.80126953 C-59.4860145 487.85350269 -116.02366404 474.64382025 -157.58935547 435.39111328 C-158.38728516 434.65763672 -159.18521484 433.92416016 -160.00732422 433.16845703 C-195.09186071 399.75726887 -209.44032327 347.39594021 -210.87103271 300.26974487 C-211.00332721 293.35634986 -211.01289921 286.44375633 -210.99233198 279.52930713 C-210.98452911 276.06177362 -210.99183607 272.59425914 -210.99649048 269.12672424 C-211.00188924 263.31384913 -210.99491322 257.5010898 -210.98046875 251.68823242 C-210.96414597 245.04432951 -210.9694521 238.40070307 -210.98594797 231.75680679 C-210.9997243 225.9682305 -211.00140536 220.1797356 -210.99363196 214.39114815 C-210.98904353 210.97070028 -210.98807731 207.55038066 -210.99824142 204.12994194 C-211.10156574 153.39787866 -201.55144524 101.88776582 -167.58935547 62.39111328 C-166.76951172 61.43720703 -165.94966797 60.48330078 -165.10498047 59.50048828 C-124.44183724 13.19694948 -59.0120393 -0.31827818 0 0 Z " fill="#FFFFFF" transform="translate(260.58935546875,318.60888671875)"/>
<path d="M0 0 C0.33 0.66 0.66 1.32 1 2 C-0.07299805 4.37231445 -0.07299805 4.37231445 -1.76171875 7.36328125 C-2.37974365 8.46663818 -2.99776855 9.56999512 -3.63452148 10.70678711 C-4.31862991 11.90881536 -5.00296166 13.11071653 -5.6875 14.3125 C-6.38482909 15.54985499 -7.08151957 16.7875701 -7.77758789 18.02563477 C-9.52283914 21.1246585 -11.27777482 24.21805205 -13.03735352 27.30895996 C-13.9043272 28.83193567 -14.76964911 30.35585139 -15.63476562 31.87988281 C-18.5314489 36.98073105 -21.44573344 42.07130124 -24.36767578 47.15771484 C-27.54220846 52.68537106 -30.70968568 58.21706174 -33.875 63.75 C-34.21455719 64.34332123 -34.55411438 64.93664246 -34.90396118 65.54794312 C-39.69420874 73.92117935 -44.42927739 82.323275 -49.125 90.75 C-53.63770522 98.84724279 -58.24150274 106.88272328 -62.9375 114.875 C-68.62124552 124.55093813 -74.1079026 134.32555939 -79.53710938 144.14624023 C-84.72896015 153.53321966 -90.02439531 162.85632169 -95.36767578 172.15771484 C-98.54220823 177.68537066 -101.70986656 183.21695856 -104.875 188.75 C-105.21389252 189.34232422 -105.55278503 189.93464844 -105.90194702 190.54492188 C-111.32135571 200.02103276 -116.67359241 209.53327014 -121.99609375 219.06420898 C-127.59481163 229.08275754 -133.29067843 239.0442014 -139 249 C-141.6267792 253.58231657 -144.2519353 258.1655565 -146.875 262.75 C-147.21446655 263.34313995 -147.55393311 263.93627991 -147.90368652 264.5473938 C-152.69401985 272.92081576 -157.4291783 281.32309717 -162.125 289.75 C-166.63770522 297.84724279 -171.24150274 305.88272328 -175.9375 313.875 C-181.62124552 323.55093813 -187.1079026 333.32555939 -192.53710938 343.14624023 C-197.7175268 352.5125479 -203.00095211 361.81531478 -208.33251953 371.09619141 C-211.3319579 376.3195179 -214.32498461 381.54650662 -217.31594849 386.77468872 C-218.34109429 388.56576198 -219.36763524 390.35602997 -220.39428711 392.14624023 C-221.03503174 393.26587158 -221.67577637 394.38550293 -222.3359375 395.5390625 C-222.89845215 396.52084473 -223.4609668 397.50262695 -224.04052734 398.51416016 C-226.74025526 403.31689067 -229.36175719 408.16322152 -232 413 C-79.21 413.33 73.58 413.66 231 414 C230.0267238 417.8931048 228.90158932 420.00765377 226.75390625 423.33203125 C226.08657471 424.37012939 225.41924316 425.40822754 224.73168945 426.4777832 C224.01585693 427.57823975 223.30002441 428.67869629 222.5625 429.8125 C221.82410414 430.95574168 221.08606887 432.09921633 220.34838867 433.24291992 C216.17336506 439.70483754 211.95617936 446.13803772 207.6628418 452.52197266 C204.1773443 457.70755273 200.77345582 462.94455618 197.375 468.1875 C183.65116083 489.34883917 183.65116083 489.34883917 182 491 C179.34172784 491.11448753 176.70875625 491.16312697 174.04934788 491.17053413 C173.20193803 491.17678112 172.35452819 491.1830281 171.48143926 491.18946439 C168.60470582 491.20935878 165.72798536 491.22199704 162.85121155 491.23464966 C160.78269846 491.24724387 158.71418774 491.26023308 156.64567941 491.27358615 C150.93227336 491.30900791 145.21885007 491.33777966 139.50540102 491.36526942 C134.61193194 491.38954965 129.71848595 491.41746595 124.82503558 491.44522573 C79.196977 491.7024514 33.5683006 491.84499261 -12.0603199 491.95736834 C-18.85051733 491.97415644 -25.64071306 491.99159467 -32.4309082 492.00927734 C-33.5563813 492.01218737 -33.5563813 492.01218737 -34.70459123 492.01515619 C-59.02479529 492.07844516 -83.34428105 492.19951803 -107.66407912 492.35158583 C-132.65942198 492.50759344 -157.65437249 492.60806442 -182.6502006 492.63764684 C-186.18100676 492.64184511 -189.71181182 492.64666343 -193.24261665 492.65185165 C-193.93752061 492.65285134 -194.63242458 492.65385104 -195.34838623 492.65488102 C-206.53184004 492.6725721 -217.7141745 492.74851444 -228.89718475 492.84610578 C-240.14096985 492.94294114 -251.38361655 492.97621395 -262.62790441 492.94903661 C-268.72043447 492.93614464 -274.80960493 492.95098235 -280.90157127 493.03995132 C-286.48042967 493.12080869 -292.05362461 493.1231101 -297.63269491 493.06306849 C-299.64975651 493.05519048 -301.66717942 493.07607596 -303.68357002 493.12869288 C-318.36584927 493.48919793 -318.36584927 493.48919793 -322.7652653 489.33187422 C-325.92328135 485.24276693 -328.09193189 480.79307372 -330.09544522 476.0519651 C-331.35972083 473.18398023 -332.97233766 470.57265721 -334.63671875 467.921875 C-335.65427387 466.19828729 -336.67122654 464.47434373 -337.6875 462.75 C-338.4909082 461.42548828 -338.4909082 461.42548828 -339.31054688 460.07421875 C-339.81005859 459.21957031 -340.30957031 458.36492187 -340.82421875 457.484375 C-341.26854248 456.73897461 -341.71286621 455.99357422 -342.1706543 455.22558594 C-343.22274082 452.40226515 -342.8781023 450.84869308 -342 448 C-340.49609375 445.625 -340.49609375 445.625 -338.4375 443 C-337.61832729 441.94153184 -336.79933145 440.88292677 -335.98046875 439.82421875 C-335.51431152 439.22786621 -335.0481543 438.63151367 -334.56787109 438.01708984 C-332.12186024 434.87025994 -329.71693406 431.69240636 -327.30615234 428.51855469 C-319.043373 417.64410132 -310.7368039 406.80286931 -302.43652344 395.95703125 C-295.94837166 387.47842594 -289.468662 378.99348717 -283 370.5 C-275.49219724 360.64209949 -267.96730692 350.79738043 -260.43652344 340.95703125 C-253.94837166 332.47842594 -247.468662 323.99348717 -241 315.5 C-233.49219724 305.64209949 -225.96730692 295.79738043 -218.43652344 285.95703125 C-211.26032475 276.57929806 -204.09655542 267.19221442 -196.94213867 257.79785156 C-192.2800944 251.67720632 -187.6094501 245.56322158 -182.93359375 239.453125 C-178.61477147 233.80788309 -174.30642379 228.15470382 -170 222.5 C-162.4922235 212.64207955 -154.96730687 202.79738036 -147.43652344 192.95703125 C-140.94837166 184.47842594 -134.468662 175.99348717 -128 167.5 C-120.49219724 157.64209949 -112.96730692 147.79738043 -105.43652344 137.95703125 C-98.26032475 128.57929806 -91.09655542 119.19221442 -83.94213867 109.79785156 C-79.2800944 103.67720632 -74.6094501 97.56322158 -69.93359375 91.453125 C-65.61477147 85.80788309 -61.30642379 80.15470382 -57 74.5 C-49.4922235 64.64207955 -41.96730687 54.79738036 -34.43652344 44.95703125 C-32.85334039 42.88815483 -31.27035704 40.81912585 -29.6875 38.75 C-29.16309326 38.06454102 -28.63868652 37.37908203 -28.09838867 36.67285156 C-25.01808281 32.6447237 -21.94263579 28.6129401 -18.87109375 24.578125 C-18.16573486 23.65161133 -17.46037598 22.72509766 -16.73364258 21.77050781 C-15.36975853 19.97852493 -14.00628655 18.18622832 -12.64331055 16.39355469 C-8.46365793 10.90160508 -4.24837204 5.43896722 0 0 Z " fill="#FFFFFF" transform="translate(3766,307)"/>
<path d="M0 0 C2.06606221 -0.00523515 4.13211663 -0.01574631 6.19812864 -0.03106999 C11.86820328 -0.05788534 17.53555451 -0.00993719 23.20528209 0.05026674 C29.32174378 0.10210318 35.43805269 0.0845509 41.55467224 0.07543945 C52.14956056 0.06914798 62.74347224 0.10636823 73.33807564 0.17429352 C84.44757862 0.24533716 95.55672773 0.29149247 106.66645622 0.30452728 C107.7032088 0.3057646 107.7032088 0.3057646 108.76090588 0.30702691 C112.27110734 0.31108699 115.78130912 0.31470357 119.29151123 0.31814942 C144.14407998 0.34334379 168.99618685 0.42416181 193.84849548 0.53778076 C217.98974657 0.64802141 242.13087119 0.73301103 266.27232361 0.78387451 C267.01667377 0.78545283 267.76102394 0.78703114 268.52793017 0.78865728 C276.00310922 0.80447974 283.47828925 0.81978947 290.95347012 0.83472359 C306.18080934 0.86515685 321.40814031 0.89901187 336.63546753 0.93493652 C337.68562257 0.93740774 337.68562257 0.93740774 338.75699287 0.93992889 C385.49610455 1.0503073 432.23494512 1.24069611 478.97373962 1.4430542 C481.14397878 5.22843579 483.31268437 9.01469085 485.48008728 12.80169678 C486.21471169 14.08480441 486.94972544 15.36768923 487.68516541 16.65032959 C489.45609768 19.73919305 491.22149838 22.83091369 492.97471619 25.92987061 C494.24974677 28.18298892 495.54942104 30.41294257 496.87120056 32.63983154 C497.42839783 33.59969971 497.98559509 34.55956787 498.55967712 35.54852295 C499.29903503 36.79411987 499.29903503 36.79411987 500.05332947 38.06488037 C501.19207237 41.00718665 500.94646604 42.47212207 499.97373962 45.4430542 C498.45175223 47.6388986 496.92543332 49.64755132 495.22373962 51.6930542 C494.21470886 52.94076788 493.20694983 54.18951083 492.20030212 55.43914795 C491.6708197 56.0925415 491.14133728 56.74593506 490.59580994 57.41912842 C487.87080666 60.81923034 485.23667834 64.28775147 482.59873962 67.7555542 C481.49333183 69.20481945 480.38786264 70.65403786 479.28233337 72.10321045 C478.73303162 72.82395752 478.18372986 73.54470459 477.61778259 74.28729248 C475.49727857 77.06781676 473.37205155 79.84470991 471.24668884 82.621521 C465.81278683 89.72140683 460.39081428 96.830323 454.97373962 103.9430542 C447.46593686 113.80095471 439.94104654 123.64567377 432.41026306 133.48602295 C425.92211128 141.96462826 419.44240162 150.44956703 412.97373962 158.9430542 C405.46593686 168.80095471 397.94104654 178.64567377 390.41026306 188.48602295 C383.23406437 197.86375614 376.07029504 207.25083977 368.9158783 216.64520264 C364.25383403 222.76584787 359.58318973 228.87983262 354.90733337 234.9899292 C350.58851109 240.6351711 346.28016341 246.28835038 341.97373962 251.9430542 C334.46596313 261.80097465 326.94104649 271.64567383 319.41026306 281.48602295 C312.92211128 289.96462826 306.44240162 298.44956703 299.97373962 306.9430542 C292.46593686 316.80095471 284.94104654 326.64567377 277.41026306 336.48602295 C270.92211128 344.96462826 264.44240162 353.44956703 257.97373962 361.9430542 C250.46593686 371.80095471 242.94104654 381.64567377 235.41026306 391.48602295 C228.23406437 400.86375614 221.07029504 410.25083977 213.9158783 419.64520264 C209.25383403 425.76584787 204.58318973 431.87983262 199.90733337 437.9899292 C195.58851089 443.63517136 191.28027061 449.28843179 186.97373962 454.9430542 C184.95430582 457.59368185 182.93475698 460.2442218 180.91514587 462.89471436 C179.65180929 464.5530025 178.38877255 466.21151913 177.12608337 467.87030029 C170.83279126 476.13629744 164.52938969 484.38217935 157.97373962 492.4430542 C157.64373962 491.7830542 157.31373962 491.1230542 156.97373962 490.4430542 C157.79966736 488.54901123 157.79966736 488.54901123 159.15733337 486.2008667 C159.6644989 485.31415283 160.17166443 484.42743896 160.69419861 483.51385498 C161.26082214 482.54174072 161.82744568 481.56962646 162.41123962 480.5680542 C162.9952655 479.55082275 163.57929138 478.53359131 164.18101501 477.48553467 C165.44592034 475.28331103 166.71421159 473.08302954 167.98545837 470.88446045 C170.97513632 465.70979193 173.93921413 460.52052576 176.90351868 455.33129883 C177.91924184 453.55405244 178.93625815 451.77755094 179.95347595 450.00115967 C184.38407569 442.25881255 188.75702354 434.48562693 193.09873962 426.6930542 C197.61138869 418.59578108 202.21524319 410.56032952 206.91123962 402.5680542 C212.59498515 392.89211607 218.08164223 383.11749481 223.510849 373.29681396 C228.70269978 363.90983454 233.99813493 354.58673251 239.34141541 345.28533936 C242.51594785 339.75768354 245.68360618 334.22609564 248.84873962 328.6930542 C249.18763214 328.10072998 249.52652466 327.50840576 249.87568665 326.89813232 C255.29509534 317.42202144 260.64733204 307.90978406 265.96983337 298.37884521 C271.56855126 288.36029666 277.26441806 278.3988528 282.97373962 268.4430542 C285.60051883 263.86073763 288.22567492 259.2774977 290.84873962 254.6930542 C291.18820618 254.09991425 291.52767273 253.50677429 291.87742615 252.8956604 C296.66775948 244.52223844 301.40291792 236.11995703 306.09873962 227.6930542 C310.61144484 219.59581141 315.21524237 211.56033092 319.91123962 203.5680542 C325.59498515 193.89211607 331.08164223 184.11749481 336.510849 174.29681396 C341.70269978 164.90983454 346.99813493 155.58673251 352.34141541 146.28533936 C355.51594797 140.75768333 358.68351146 135.22604161 361.84873962 129.6930542 C362.18597046 129.10372101 362.52320129 128.51438782 362.87065125 127.90719604 C368.37059345 118.29191821 373.80830529 108.64345341 379.19395447 98.96356201 C383.03655719 92.06827061 386.99416537 85.26518149 390.97373962 78.4430542 C237.85373962 78.4430542 84.73373962 78.4430542 -73.02626038 78.4430542 C-71.54359481 74.73639027 -70.4787211 72.40047541 -68.26063538 69.28289795 C-67.70762756 68.49979248 -67.15461975 67.71668701 -66.58485413 66.90985107 C-65.98801819 66.07518311 -65.39118225 65.24051514 -64.77626038 64.3805542 C-63.50008523 62.57726324 -62.22404735 60.77387513 -60.94813538 58.97039795 C-60.29522522 58.05113525 -59.64231506 57.13187256 -58.96961975 56.18475342 C-55.96884326 51.95124588 -52.99837966 47.69670245 -50.02626038 43.4430542 C-48.86620144 41.78673604 -47.70604473 40.13048635 -46.54579163 38.4743042 C-44.14181878 35.04063301 -41.74422317 31.60261332 -39.35047913 28.1618042 C-38.74139709 27.28781982 -38.13231506 26.41383545 -37.504776 25.5133667 C-36.362416 23.8739493 -35.22162522 22.23343656 -34.082901 20.5914917 C-33.03093832 19.08320984 -31.95949559 17.58828428 -30.86690181 16.1091702 C-28.95149266 13.4488655 -28.95149266 13.4488655 -27.42472082 10.39576411 C-20.68506927 -1.05868086 -12.36509753 -0.2322762 0 0 Z " fill="#EA1F27" transform="translate(3496.0262603759766,125.55694580078125)"/>
<path d="M0 0 C25.74 0 51.48 0 78 0 C78.00808685 6.75912872 78.01617371 13.51825745 78.02450562 20.48220825 C78.07858393 65.12981857 78.13487428 109.77742453 78.20132446 154.42501831 C78.20245809 155.18716326 78.20359171 155.94930821 78.20475969 156.73454846 C78.22941254 173.29899162 78.25450548 189.86343408 78.28005161 206.42787588 C78.2925772 214.55136375 78.30500556 222.67485175 78.31738281 230.79833984 C78.31861614 231.60671396 78.31984946 232.41508807 78.32112016 233.24795837 C78.36103249 259.43807672 78.3945279 285.6281985 78.42468691 311.81832975 C78.45571952 338.73761778 78.49324336 365.65688917 78.53890612 392.57615655 C78.54535629 396.38046122 78.55173244 400.18476602 78.55806351 403.98907089 C78.55931181 404.73779453 78.56056012 405.48651817 78.56184625 406.2579304 C78.58173039 418.29836101 78.59479492 430.33878977 78.60529328 442.37923181 C78.61600009 454.4911734 78.63392939 466.60308739 78.65916704 478.71500756 C78.67263657 485.27455918 78.6826973 491.8340831 78.68421364 498.39365005 C78.68567381 504.40336078 78.69631134 510.41298401 78.71413441 516.42266785 C78.71896982 518.5924804 78.72048682 520.76230352 78.71827881 522.93212034 C78.59048808 552.74465925 78.59048808 552.74465925 93 578 C101.32492887 586.06375463 111.30912619 589.87144415 122.74609375 591.09765625 C123.88865128 591.22175369 123.88865128 591.22175369 125.05429077 591.34835815 C136.70496017 592.48988969 148.42955157 592.46911979 160.125 592.625 C168.33375 592.74875 176.5425 592.8725 185 593 C185 616.1 185 639.2 185 663 C165.50711866 663.12032643 165.50711866 663.12032643 157.0859375 663.14648438 C151.37881926 663.16429703 145.67184776 663.18518079 139.96484375 663.22631836 C135.35472399 663.2593347 130.74476196 663.27694033 126.13453293 663.28463173 C124.39100034 663.29010051 122.64747466 663.30077488 120.90401077 663.31719017 C103.12443418 663.47766501 86.76471731 660.95682509 70 655 C68.42992187 654.44699219 68.42992187 654.44699219 66.828125 653.8828125 C41.84559926 644.2995685 22.20956011 623.44616228 11.3125 599.375 C0.71376024 574.9207247 -0.15806672 548.85009494 -0.12025452 522.62612915 C-0.12069112 520.36603005 -0.12156766 518.10593101 -0.12284368 515.84583223 C-0.12507114 509.6635989 -0.12109137 503.48138301 -0.11606562 497.2991519 C-0.11218133 491.30839559 -0.11302714 485.3176411 -0.11374746 479.32688403 C-0.11505795 467.08058744 -0.11173296 454.83429627 -0.10573006 442.58800125 C-0.09980508 430.46950885 -0.09596251 418.35101871 -0.09487724 406.23252487 C-0.0948085 405.47792823 -0.09473976 404.72333159 -0.09466894 403.94586839 C-0.09433059 400.11336933 -0.09402921 396.28087028 -0.09374207 392.44837122 C-0.09164385 365.33048813 -0.08491261 338.21260799 -0.07543945 311.09472656 C-0.0662493 284.75651058 -0.05916849 258.4182954 -0.05493164 232.08007812 C-0.05480011 231.26765902 -0.05466859 230.45523991 -0.05453308 229.61820205 C-0.05321451 221.45926377 -0.0519387 213.30032549 -0.05069422 205.1413872 C-0.04815827 188.5219416 -0.04533702 171.90249606 -0.04234314 155.28305054 C-0.04220585 154.51898113 -0.04206856 153.75491173 -0.04192711 152.96768871 C-0.03273254 101.97845783 -0.01665912 50.98922892 0 0 Z " fill="#FFFFFF" transform="translate(555,137)"/>
</svg>
